<?xml version="1.0" standalone="no"?>
<!DOCTYPE svg PUBLIC "-//W3C//DTD SVG 1.1//EN" "http://www.w3.org/Graphics/SVG/1.1/DTD/svg11.dtd" >
<svg xmlns="http://www.w3.org/2000/svg">
<metadata></metadata>
<defs>
<font id="sansa_soft_stdsemibold" horiz-adv-x="1280" >
<font-face units-per-em="2048" ascent="1663" descent="-385" />
<missing-glyph horiz-adv-x="544" />
<glyph unicode="&#xfb01;" horiz-adv-x="1351" d="M41 981v66q0 34 19.5 53.5t54.5 19.5h100v39q0 189 111 283t297 94h61q34 0 54 -20t20 -54v-53q0 -34 -20 -54t-54 -20h-37q-95 0 -136.5 -42.5t-41.5 -139.5v-33h627q36 0 55.5 -19.5t19.5 -53.5v-975q0 -34 -19.5 -53t-55.5 -19h-105q-34 0 -53.5 19t-19.5 53v835h-449 v-835q0 -34 -20 -53t-56 -19h-102q-35 0 -55.5 19t-20.5 53v835h-98q-36 0 -56 20t-20 54zM918 1378v84q0 34 19 54t54 20h107q35 0 54 -20t19 -54v-84q0 -73 -73 -73h-107q-73 0 -73 73z" />
<glyph unicode="&#xfb02;" horiz-adv-x="1351" d="M41 981v66q0 34 20.5 53.5t55.5 19.5h98v41q0 181 103 278t280 97h500q35 0 54 -20t19 -54v-1388q0 -34 -19 -54t-54 -20h-105q-35 0 -55 20t-20 54v1263h-279q-90 0 -130 -43.5t-40 -138.5v-35h178q36 0 56 -19.5t20 -53.5v-66q0 -34 -20 -54t-56 -20h-178v-833 q0 -34 -19.5 -54t-54.5 -20h-102q-36 0 -57 20t-21 54v833h-98q-36 0 -56 20t-20 54z" />
<glyph horiz-adv-x="2048" />
<glyph horiz-adv-x="2048" />
<glyph unicode="&#xd;" horiz-adv-x="2048" />
<glyph unicode=" "  horiz-adv-x="544" />
<glyph unicode="&#x09;" horiz-adv-x="544" />
<glyph unicode="&#xa0;" horiz-adv-x="544" />
<glyph unicode="!" horiz-adv-x="610" d="M176 72v110q0 74 94 74h66q94 0 94 -74v-110q0 -72 -94 -72h-66q-94 0 -94 72zM178 1462q-1 33 19.5 53.5t54.5 20.5h102q34 0 54 -19t20 -51l-20 -929q0 -31 -18 -48.5t-50 -17.5h-74q-65 0 -65 66z" />
<glyph unicode="&#x22;" horiz-adv-x="980" d="M168 1462q-2 34 17.5 54t54.5 20h102q35 0 54.5 -20t17.5 -54l-15 -268q-2 -34 -23 -54t-57 -20h-59q-35 0 -55.5 20t-22.5 54zM567 1462q-1 34 18.5 54t53.5 20h104q35 0 53.5 -20t16.5 -54l-12 -268q-2 -34 -23.5 -54t-56.5 -20h-62q-34 0 -54.5 20t-22.5 54z" />
<glyph unicode="#" horiz-adv-x="1363" d="M63 399v66q0 34 20 54t54 20h182v458h-182q-34 0 -54 20t-20 54v66q0 34 20 53.5t54 19.5h182v252q0 34 20 54t54 20h70q34 0 54 -20t20 -54v-252h290v252q0 34 20 54t54 20h70q34 0 53.5 -20t19.5 -54v-252h183q34 0 53.5 -19.5t19.5 -53.5v-66q0 -34 -19.5 -54 t-53.5 -20h-183v-458h183q34 0 53.5 -20t19.5 -54v-66q0 -34 -19.5 -53.5t-53.5 -19.5h-183v-252q0 -34 -19.5 -54t-53.5 -20h-70q-34 0 -54 20t-20 54v252h-290v-252q0 -34 -20 -54t-54 -20h-70q-34 0 -54 20t-20 54v252h-182q-34 0 -54 19.5t-20 53.5zM537 539h290v458 h-290v-458z" />
<glyph unicode="$" d="M133 119v76q0 28 13.5 44.5t39.5 16.5q15 0 23 -2q73 -19 170 -33t170 -14h72q276 0 276 225q0 97 -51 144t-152 73l-223 60q-65 17 -119 46t-103.5 76.5t-77.5 123t-28 171.5q0 180 119 289.5t318 130.5v156q0 35 19.5 54.5t53.5 19.5h56q34 0 53.5 -19.5t19.5 -54.5 v-152q136 -7 240 -37q74 -20 74 -86v-73q0 -30 -13.5 -47t-38.5 -17q-14 0 -22 2q-142 37 -289 37h-59q-262 0 -262 -203q0 -47 14 -81.5t42.5 -56.5t58 -35.5t75.5 -26.5l217 -60q77 -22 135 -52.5t108 -80t76.5 -125.5t26.5 -176q0 -197 -120 -310t-334 -134v-170 q0 -34 -20 -54t-54 -20h-55q-34 0 -54 20t-20 54v166q-164 11 -299 47q-76 19 -76 88z" />
<glyph unicode="%" horiz-adv-x="2004" d="M133 1100q0 234 89.5 340t277.5 106q186 0 275 -106.5t89 -339.5q0 -230 -89.5 -337.5t-274.5 -107.5q-187 0 -277 107.5t-90 337.5zM334 1100q0 -161 36 -226t130 -65q93 0 127.5 63.5t34.5 227.5q0 168 -34.5 230.5t-127.5 62.5q-95 0 -130.5 -63t-35.5 -230zM567 35 q0 4 8 24l703 1418q32 59 82 59h26q50 0 50 -37q0 -10 -6 -22l-705 -1418q-29 -59 -80 -59h-24q-54 0 -54 35zM1147 436q0 234 88 340.5t276 106.5q186 0 275.5 -107t89.5 -340q0 -229 -90 -336.5t-275 -107.5q-187 0 -275.5 106.5t-88.5 337.5zM1346 436 q0 -162 35.5 -227.5t129.5 -65.5q93 0 127.5 63.5t34.5 229.5t-34.5 228.5t-127.5 62.5q-95 0 -130 -62.5t-35 -228.5z" />
<glyph unicode="&#x26;" horiz-adv-x="1386" d="M137 438q0 124 64.5 226t179.5 145q-87 43 -140 129t-53 199q0 194 135 304.5t363 110.5h53q68 0 153 -12.5t138 -30.5q60 -20 60 -84v-82q0 -53 -50 -53q-16 0 -24 2q-160 37 -277 37h-53q-113 0 -173 -49.5t-60 -163.5q0 -93 54.5 -151t141.5 -58h568q34 0 53.5 -18 t19.5 -53v-70q0 -34 -19.5 -54t-53.5 -20h-64v-631q-76 -30 -218.5 -53.5t-264.5 -23.5q-533 0 -533 454zM399 442q0 -122 68.5 -178.5t202.5 -56.5q55 0 122.5 7.5t98.5 16.5v463h-242q-118 0 -184 -68t-66 -184z" />
<glyph unicode="'" horiz-adv-x="581" d="M168 1462q-2 34 17.5 54t54.5 20h102q35 0 54.5 -20t17.5 -54l-15 -268q-2 -34 -23 -54t-57 -20h-59q-35 0 -55.5 20t-22.5 54z" />
<glyph unicode="(" horiz-adv-x="798" d="M96 608v64q0 244 74 450t209 340q40 40 66 57t59 17h94q51 0 51 -31q0 -16 -24 -43q-79 -79 -134 -174t-85 -198t-43 -203.5t-13 -214.5v-64q0 -116 12 -215t41 -203.5t85 -199t137 -172.5q24 -27 24 -43q0 -31 -51 -31h-94q-33 0 -59 17t-66 57q-136 131 -209.5 337.5 t-73.5 452.5z" />
<glyph unicode=")" horiz-adv-x="798" d="M147 -225q0 16 27 43q81 79 136.5 173.5t85 198t41.5 203.5t12 215v64q0 510 -275 790q-27 27 -27 43q0 31 54 31h94q33 0 59 -17t66 -57q135 -133 208.5 -339t73.5 -451v-64q0 -246 -73 -452.5t-209 -337.5q-40 -40 -66 -57t-59 -17h-94q-54 0 -54 31z" />
<glyph unicode="*" horiz-adv-x="1024" d="M121 954q0 31 33 47l192 111l-192 113q-33 17 -33 47q0 7 8 31l29 43q22 32 49 32q11 0 31 -10l188 -111v222q0 57 59 57h54q59 0 59 -57v-222l188 111q20 10 31 10q27 0 49 -32l29 -43q8 -16 8 -33q0 -31 -33 -47l-192 -113l192 -111q33 -20 33 -47q0 -6 -8 -30l-29 -43 q-23 -33 -49 -33q-11 0 -31 10l-188 111v-222q0 -57 -59 -57h-54q-59 0 -59 57v220l-188 -109q-20 -10 -31 -10q-26 0 -49 33l-29 43q-8 16 -8 32z" />
<glyph unicode="+" d="M193 721v63q0 34 19 54t54 20h266v268q0 34 19.5 54t54.5 20h68q35 0 54.5 -20t19.5 -54v-268h266q35 0 54 -20t19 -54v-63q0 -36 -19 -56t-54 -20h-266v-266q0 -35 -19.5 -55.5t-54.5 -20.5h-68q-35 0 -54.5 20.5t-19.5 55.5v266h-266q-35 0 -54 20t-19 56z" />
<glyph unicode="," horiz-adv-x="610" d="M51 -213q0 10 2 16l101 379q20 74 88 74h120q35 0 54.5 -20t19.5 -54q0 -39 -16 -63l-174 -316q-16 -30 -34 -44.5t-46 -14.5h-62q-24 0 -38.5 12t-14.5 31z" />
<glyph unicode="-" horiz-adv-x="831" d="M100 721v63q0 34 19.5 54t54.5 20h483q35 0 54.5 -20t19.5 -54v-63q0 -35 -19.5 -55.5t-54.5 -20.5h-481q-36 0 -56 20t-20 56z" />
<glyph unicode="." horiz-adv-x="610" d="M174 74v108q0 34 19.5 54t54.5 20h114q34 0 54 -20t20 -54v-108q0 -34 -20 -54t-54 -20h-114q-35 0 -54.5 20t-19.5 54z" />
<glyph unicode="/" horiz-adv-x="1097" d="M76 -211q0 14 6 29l694 1644q16 37 37.5 55.5t56.5 18.5h93q27 0 43 -12t16 -33q0 -14 -6 -29l-694 -1644q-33 -74 -95 -74h-92q-27 0 -43 12t-16 33z" />
<glyph unicode="0" d="M100 768q0 412 131.5 598t409.5 186q277 0 409 -186.5t132 -597.5q0 -408 -132.5 -596t-408.5 -188q-278 0 -409.5 187.5t-131.5 596.5zM362 768q0 -312 60.5 -436.5t218.5 -124.5t217.5 121.5t59.5 439.5q0 216 -25.5 335.5t-85 172.5t-166.5 53q-81 0 -133.5 -27.5 t-85.5 -94.5t-46.5 -171.5t-13.5 -267.5z" />
<glyph unicode="1" d="M178 1174v92q0 62 74 92l397 162q40 16 84 16h53q34 0 54 -20t20 -54v-1388q0 -34 -20 -54t-54 -20h-114q-34 0 -54 20t-20 54v1183l-344 -139q-15 -6 -29 -6q-21 0 -34 17.5t-13 44.5z" />
<glyph unicode="2" d="M147 74v141q0 314 297 492l191 112q49 30 80 53.5t63 58t47 77t15 94.5q0 122 -63 167.5t-197 45.5h-318q-76 0 -76 74v73q0 34 20 54t56 20h361q235 0 357 -108t122 -320q0 -67 -15.5 -124t-42 -101.5t-71 -87t-91.5 -76t-116 -74.5l-176 -104q-94 -57 -133 -129 t-39 -168v-23h633q75 0 75 -74v-73q0 -34 -20 -54t-55 -20h-830q-34 0 -54 20t-20 54z" />
<glyph unicode="3" d="M178 74v73q0 36 20 55t54 19h348q131 0 209 62.5t78 185.5q0 122 -71.5 172.5t-207.5 50.5h-194q-35 0 -55.5 20t-20.5 54v55q0 35 20 54.5t54 19.5h270q172 99 172 235q0 103 -62 141t-192 38h-340q-36 0 -56 19t-20 54v80q0 34 20.5 54t55.5 20h363q114 0 201 -18 t155 -58t103.5 -110t35.5 -168q0 -100 -47 -182.5t-153 -153.5q118 -49 174.5 -137.5t56.5 -239.5q0 -221 -149 -345t-386 -124h-360q-35 0 -55.5 20t-20.5 54z" />
<glyph unicode="4" d="M96 383v49q0 46 19 80q216 400 311 950q6 35 27.5 54.5t56.5 19.5h127q30 0 49 -15.5t19 -41.5q0 -9 -7.5 -42t-9.5 -44q-90 -444 -326 -865h406v308q0 35 20 53t54 18h114q74 0 74 -71v-308h94q34 0 54 -19.5t20 -53.5v-72q0 -34 -20 -54t-54 -20h-94v-235 q0 -34 -19.5 -54t-54.5 -20h-114q-34 0 -54 20t-20 54v235h-598q-34 0 -54 20t-20 54z" />
<glyph unicode="5" d="M164 74v73q0 36 20 55t54 19h356q283 0 283 279q0 72 -19.5 120t-60 74.5t-92 37.5t-125.5 11h-310q-35 0 -54 20t-19 54v645q0 34 19 54t54 20h729q36 0 56 -20t20 -54v-73q0 -74 -76 -74h-557v-348h176q259 0 391 -119t132 -348q0 -231 -143.5 -365.5t-403.5 -134.5 h-356q-34 0 -54 20t-20 54z" />
<glyph unicode="6" d="M131 485v463q0 268 171 428t474 160h176q35 0 55.5 -20t20.5 -54v-73q0 -36 -20 -55t-56 -19h-198q-166 0 -263.5 -87.5t-97.5 -260.5v-62q156 76 293 76q463 0 463 -496q0 -229 -132.5 -365t-381.5 -136q-242 0 -373 130.5t-131 370.5zM393 485q0 -278 248 -278 q120 0 183 66t63 212q0 147 -54.5 213t-175.5 66q-132 0 -264 -59v-220z" />
<glyph unicode="7" d="M127 1393v69q0 34 20.5 54t55.5 20h874q36 0 55 -20t19 -54v-51q0 -41 -29 -74q-80 -91 -144.5 -179t-124 -197t-99 -221t-63 -247.5t-23.5 -279.5v-139q0 -34 -20 -54t-54 -20h-115q-34 0 -53.5 20t-19.5 54v119q0 176 39.5 345.5t108 311.5t148 256.5t172.5 212.5h-671 q-35 0 -55.5 19.5t-20.5 54.5z" />
<glyph unicode="8" d="M117 422q0 111 46.5 186.5t135.5 143.5l68 51q-220 116 -220 350q0 85 25.5 153.5t69 113.5t104 75.5t126.5 43.5t140 13h56q108 0 191 -20.5t145.5 -66t95.5 -124t33 -188.5q0 -93 -43 -166.5t-119 -142.5l-49 -43q120 -59 180.5 -147.5t60.5 -231.5q0 -105 -39.5 -189 t-107.5 -138t-157 -82.5t-191 -28.5h-56q-235 0 -365 106t-130 332zM379 428q0 -63 17.5 -106.5t52 -66.5t75.5 -32.5t97 -9.5h38q114 0 178 49t64 166q0 89 -45 141t-133 88l-164 68l-63 -57q-37 -33 -58.5 -58.5t-40 -74t-18.5 -107.5zM403 1145q0 -78 39 -122t121 -77 l162 -65l43 41q55 51 82 101.5t27 121.5q0 102 -55 145t-154 43h-56q-99 0 -154 -43t-55 -145z" />
<glyph unicode="9" d="M129 1042q0 229 136 365.5t382 136.5q239 0 370.5 -131.5t131.5 -370.5v-454q0 -268 -171 -428t-474 -160h-178q-34 0 -54 19t-20 53v75q0 35 20 54.5t54 19.5h200q165 0 262 87.5t97 258.5v58q-148 -74 -293 -74q-235 0 -349 126.5t-114 364.5zM393 1042q0 -146 54 -211 t176 -65q134 0 262 57v219q0 281 -244 281q-123 0 -185.5 -66.5t-62.5 -214.5z" />
<glyph unicode=":" horiz-adv-x="610" d="M174 74v108q0 34 19.5 54t54.5 20h114q34 0 54 -20t20 -54v-108q0 -34 -20 -54t-54 -20h-114q-35 0 -54.5 20t-19.5 54zM174 938v109q0 34 19.5 53.5t54.5 19.5h114q34 0 54 -19.5t20 -53.5v-109q0 -34 -20 -54t-54 -20h-114q-35 0 -54.5 20t-19.5 54z" />
<glyph unicode=";" horiz-adv-x="610" d="M51 -213q0 10 2 16l101 379q20 74 88 74h120q35 0 54.5 -20t19.5 -54q0 -39 -16 -63l-174 -316q-16 -30 -34 -44.5t-46 -14.5h-62q-24 0 -38.5 12t-14.5 31zM174 938v109q0 34 19.5 53.5t54.5 19.5h114q34 0 54 -19.5t20 -53.5v-109q0 -34 -20 -54t-54 -20h-114 q-35 0 -54.5 20t-19.5 54z" />
<glyph unicode="&#x3c;" d="M193 715v78q0 59 73 98l748 387q20 10 33 10q18 0 29 -16t11 -41v-94q0 -35 -17.5 -57t-55.5 -40l-574 -288l574 -285q37 -18 55 -40t18 -56v-95q0 -27 -10.5 -43t-29.5 -16q-13 0 -33 10l-748 389q-73 36 -73 99z" />
<glyph unicode="=" d="M193 475v66q0 73 73 73h748q73 0 73 -73v-66q0 -34 -19 -53t-54 -19h-748q-35 0 -54 19t-19 53zM193 944v64q0 73 73 73h748q73 0 73 -73v-64q0 -35 -19 -54.5t-54 -19.5h-748q-35 0 -54 19.5t-19 54.5z" />
<glyph unicode="&#x3e;" d="M193 276v95q0 34 18 56t55 40l574 285l-574 288q-38 18 -55.5 40t-17.5 57v94q0 25 11 41t29 16q13 0 33 -10l748 -389q73 -39 73 -98v-76q0 -63 -73 -99l-748 -389q-20 -10 -33 -10q-19 0 -29.5 16t-10.5 43z" />
<glyph unicode="?" horiz-adv-x="966" d="M129 1399v57q0 36 22 58t60 22h270q213 0 316.5 -87t103.5 -265q0 -162 -182 -379l-203 -238v-51q0 -37 -22 -58.5t-60 -21.5h-90q-37 0 -58.5 21.5t-21.5 58.5v29q0 26 17 49l223 264q74 89 108.5 160t34.5 139q0 162 -239 162h-197q-38 0 -60 21t-22 59zM264 80v96 q0 36 22 58t58 22h90q38 0 60 -22t22 -58v-96q0 -37 -22 -58.5t-60 -21.5h-90q-37 0 -58.5 21.5t-21.5 58.5z" />
<glyph unicode="@" horiz-adv-x="1896" d="M117 672q0 207 68 375t186.5 277.5t276.5 168.5t339 59q238 0 416.5 -83.5t279.5 -250t101 -397.5q0 -221 -142 -361.5t-370 -140.5h-324q-164 0 -259 92t-95 261q0 174 106 279.5t267 105.5h207q35 0 54 -20t19 -56v-512h39q122 0 200.5 94.5t78.5 257.5 q0 266 -148.5 405.5t-429.5 139.5q-303 0 -479 -179.5t-176 -514.5q0 -327 174 -511t467 -184q152 0 307 27q6 2 16 2q27 0 43.5 -17t16.5 -46v-37q0 -70 -74 -86q-136 -29 -309 -29q-143 0 -270.5 34.5t-235 106t-185.5 174.5t-121.5 247.5t-43.5 318.5zM793 672 q0 -96 40.5 -149.5t114.5 -53.5h103v438h-84q-78 0 -126 -65t-48 -170z" />
<glyph unicode="A" horiz-adv-x="1445" d="M66 51q0 13 2 21q15 61 29.5 118.5t25 96.5t27 96t23.5 82.5t27.5 94.5t28.5 95q67 229 172 504t158 377h334q53 -102 158 -377t172 -504q8 -28 28 -95t28 -93.5t24 -83t26 -95.5t24.5 -96.5t28.5 -119.5q2 -8 2 -21q0 -24 -17.5 -37.5t-47.5 -13.5h-133q-66 0 -82 72 q-26 114 -72 288h-629q-14 -54 -37.5 -154t-31.5 -134q-19 -72 -84 -72h-119q-30 0 -47.5 13.5t-17.5 37.5zM465 582h508q-2 6 -5 20.5t-5 20.5q-134 486 -240 704q-104 -213 -246 -704q-10 -35 -12 -41z" />
<glyph unicode="B" horiz-adv-x="1355" d="M178 74v1388q0 34 20 54t54 20h496q454 0 454 -395q0 -119 -54.5 -209t-148.5 -137q236 -84 236 -346q0 -225 -122.5 -337t-354.5 -112h-506q-34 0 -54 20t-20 54zM440 221h295q120 0 175 56t55 176q0 115 -58.5 166t-179.5 51h-287v-449zM440 879h287q97 0 151 68 t54 167q0 104 -51 152.5t-154 48.5h-287v-436z" />
<glyph unicode="C" horiz-adv-x="1339" d="M98 678v180q0 221 94.5 378.5t262 236.5t393.5 79q104 0 212 -20t177 -47v-314q0 -35 -20.5 -54t-57.5 -19h-90q-34 0 -54 19t-20 54v138q-64 20 -180 20q-207 0 -326.5 -116t-119.5 -349v-186q0 -222 113 -346.5t317 -124.5h96q118 0 264 43q10 4 31 4q47 0 47 -53v-80 q0 -38 -14.5 -58.5t-48.5 -27.5q-175 -51 -279 -51h-96q-340 0 -520.5 185.5t-180.5 508.5z" />
<glyph unicode="D" horiz-adv-x="1497" d="M178 74v1388q0 34 20 54t54 20h434q352 0 529.5 -167t177.5 -478v-213q0 -153 -40 -275t-121.5 -213t-215 -140.5t-311.5 -49.5h-453q-34 0 -54 20t-20 54zM440 221h265q417 0 417 471v187q0 436 -436 436h-246v-1094z" />
<glyph unicode="E" horiz-adv-x="1239" d="M178 416v1046q0 34 20 54t54 20h772q34 0 54 -20t20 -54v-73q0 -36 -20 -55t-54 -19h-584v-408h521q34 0 53.5 -18t19.5 -53v-76q0 -34 -19.5 -54t-53.5 -20h-521v-254q0 -110 46 -160.5t143 -50.5h409q34 0 54 -19t20 -55v-73q0 -34 -20 -54t-54 -20h-458 q-199 0 -300.5 105t-101.5 311z" />
<glyph unicode="F" horiz-adv-x="1134" d="M178 74v1007q0 455 471 455h330q34 0 54 -20t20 -54v-73q0 -36 -20 -55t-54 -19h-338q-96 0 -148.5 -57t-52.5 -166v-207h506q34 0 54 -20t20 -54v-78q0 -34 -20 -54t-54 -20h-506v-585q0 -34 -19.5 -54t-53.5 -20h-115q-34 0 -54 20t-20 54z" />
<glyph unicode="G" horiz-adv-x="1466" d="M109 678v190q0 136 39 248.5t108.5 192.5t166 135t211.5 81.5t245 26.5q161 0 372 -55q34 -9 49 -29t15 -57v-86q0 -51 -49 -51q-9 0 -29 4q-176 51 -365 51q-110 0 -198 -26.5t-155.5 -80.5t-104.5 -144t-37 -210v-190q0 -221 121.5 -346t332.5 -125h72q98 0 170 20v340 h-203q-35 0 -54 20t-19 54v76q0 35 19 54.5t54 19.5h373q33 0 52.5 -19.5t19.5 -54.5v-649q-65 -29 -185 -56.5t-227 -27.5h-72q-341 0 -531.5 187t-190.5 507z" />
<glyph unicode="H" horiz-adv-x="1542" d="M178 74v1388q0 34 20 54t54 20h115q34 0 53.5 -20t19.5 -54v-547h660v547q0 34 20.5 54t55.5 20h112q35 0 55.5 -20t20.5 -54v-1388q0 -34 -20.5 -54t-55.5 -20h-112q-35 0 -55.5 20t-20.5 54v618h-660v-618q0 -34 -19.5 -54t-53.5 -20h-115q-34 0 -54 20t-20 54z" />
<glyph unicode="I" horiz-adv-x="618" d="M178 74v1388q0 34 20 54t54 20h115q34 0 53.5 -20t19.5 -54v-1388q0 -34 -19.5 -54t-53.5 -20h-115q-34 0 -54 20t-20 54z" />
<glyph unicode="J" horiz-adv-x="956" d="M82 74v73q0 36 20 55t54 19h133q227 0 227 252v842h-295q-34 0 -54 19t-20 55v73q0 34 20 54t54 20h484q34 0 53.5 -20t19.5 -54v-989q0 -223 -126 -348t-351 -125h-145q-34 0 -54 20t-20 54z" />
<glyph unicode="K" horiz-adv-x="1409" d="M178 74v1388q0 34 20 54t54 20h115q34 0 53.5 -20t19.5 -54v-555h92l467 555q34 39 58 56.5t55 17.5h156q55 0 55 -35q0 -16 -20 -39l-562 -651l590 -737q19 -25 19 -39q0 -35 -52 -35h-170q-34 0 -56.5 17t-55.5 57l-494 618h-82v-618q0 -34 -19.5 -54t-53.5 -20h-115 q-34 0 -54 20t-20 54z" />
<glyph unicode="L" horiz-adv-x="1099" d="M178 416v1046q0 34 20 54t54 20h115q34 0 53.5 -20t19.5 -54v-1030q0 -110 46 -160.5t143 -50.5h350q34 0 54 -19t20 -55v-73q0 -34 -20 -54t-54 -20h-399q-195 0 -298.5 107t-103.5 309z" />
<glyph unicode="M" horiz-adv-x="1783" d="M176 72v1390q0 34 20.5 54t55.5 20h119q52 0 82 -43l436 -629l440 629q30 43 82 43h119q36 0 56 -20t20 -54v-1390q0 -34 -20 -53t-56 -19h-113q-35 0 -54.5 19t-19.5 53v1036l-393 -537q-30 -34 -57 -34h-29q-37 0 -57 34l-367 527v-1026q0 -34 -20 -53t-55 -19h-113 q-35 0 -55.5 19t-20.5 53z" />
<glyph unicode="N" horiz-adv-x="1550" d="M176 72v1390q0 34 20.5 54t55.5 20h86q31 0 48 -10t34 -33l688 -1004v973q0 34 20.5 54t55.5 20h112q35 0 55.5 -20t20.5 -54v-1390q0 -34 -20.5 -53t-55.5 -19h-86q-32 0 -50 10t-32 33l-688 1008v-979q0 -34 -20 -53t-55 -19h-113q-35 0 -55.5 19t-20.5 53z" />
<glyph unicode="O" horiz-adv-x="1531" d="M98 721v100q0 348 171 539.5t497 191.5q328 0 498 -188.5t170 -542.5v-100q0 -349 -171 -543t-497 -194q-327 0 -497.5 191t-170.5 546zM369 721q0 -259 94.5 -386.5t302.5 -127.5t302.5 127.5t94.5 386.5v100q0 257 -94.5 382.5t-302.5 125.5t-302.5 -125.5 t-94.5 -382.5v-100z" />
<glyph unicode="P" horiz-adv-x="1304" d="M178 74v1388q0 34 20 54t54 20h450q253 0 384 -130t131 -392q0 -269 -145 -410t-402 -141h-230v-389q0 -34 -19.5 -54t-53.5 -20h-115q-34 0 -54 20t-20 54zM440 684h215q85 0 142 21t89.5 65t46 102t13.5 142q0 166 -62 233.5t-220 67.5h-224v-631z" />
<glyph unicode="Q" horiz-adv-x="1531" d="M98 721v100q0 348 171 539.5t497 191.5q328 0 498 -188.5t170 -542.5v-100q0 -322 -146 -513t-426 -218v-58q0 -68 30 -95t109 -27q85 0 168 18q8 2 25 2q49 0 49 -53v-51q0 -35 -13 -55t-46 -29q-101 -27 -197 -27q-148 0 -231.5 78t-83.5 219v76q-282 28 -428 216.5 t-146 516.5zM369 721q0 -259 94.5 -386.5t302.5 -127.5t302.5 127.5t94.5 386.5v100q0 257 -94.5 382.5t-302.5 125.5t-302.5 -125.5t-94.5 -382.5v-100z" />
<glyph unicode="R" horiz-adv-x="1374" d="M178 74v1388q0 34 20 54t54 20h450q259 0 387 -113t128 -370q0 -118 -37 -207.5t-93 -142.5t-137 -93q90 -79 185 -229t145 -277q16 -36 16 -55q0 -23 -17.5 -36t-45.5 -13h-141q-33 0 -52 18.5t-34 55.5q-47 120 -136 258.5t-163 195.5h-267v-454q0 -34 -19.5 -54 t-53.5 -20h-115q-34 0 -54 20t-20 54zM440 748h207q159 0 229 74.5t70 224.5q0 155 -63 211.5t-219 56.5h-224v-567z" />
<glyph unicode="S" horiz-adv-x="1249" d="M113 119v86q0 55 47 55q6 0 26 -4q207 -49 340 -49h72q279 0 279 225q0 96 -52 143.5t-153 73.5l-221 60q-65 17 -119.5 46t-103.5 76.5t-77 123t-28 171.5q0 201 144.5 313.5t379.5 112.5h64q125 0 301 -43q33 -7 47 -27.5t14 -56.5v-82q0 -53 -51 -53q-17 0 -25 2 q-173 37 -286 37h-60q-262 0 -262 -203q0 -47 14 -81.5t43 -56.5t58.5 -35.5t75.5 -26.5l217 -60q77 -22 135.5 -52.5t109 -80t77 -125.5t26.5 -176q0 -218 -146.5 -333t-400.5 -115h-72q-137 0 -352 51q-34 9 -47.5 28.5t-13.5 55.5z" />
<glyph unicode="T" horiz-adv-x="1230" d="M33 1389v73q0 34 19 54t54 20h1018q34 0 54 -20t20 -54v-73q0 -36 -20 -55t-54 -19h-379v-1241q0 -34 -19 -54t-54 -20h-115q-34 0 -54 20t-20 54v1241h-377q-73 0 -73 74z" />
<glyph unicode="U" horiz-adv-x="1513" d="M168 541v921q0 34 20.5 54t55.5 20h112q35 0 55.5 -20t20.5 -54v-923q0 -332 326 -332q323 0 323 332v923q0 34 20.5 54t55.5 20h113q36 0 56 -20t20 -54v-921q0 -136 -43.5 -242.5t-122.5 -175t-186 -104t-236 -35.5q-279 0 -434.5 142.5t-155.5 414.5z" />
<glyph unicode="V" horiz-adv-x="1417" d="M63 1481q0 26 18.5 40.5t49.5 14.5h133q66 0 82 -74q75 -358 175.5 -696.5t195.5 -546.5q95 207 197 545.5t180 697.5q16 74 82 74h110q31 0 49.5 -15.5t18.5 -41.5q0 -3 -19 -95q-84 -413 -219 -802.5t-237 -581.5h-338q-98 184 -233.5 578t-227.5 815q-17 57 -17 88z " />
<glyph unicode="W" horiz-adv-x="2158" d="M63 1462v13q0 28 17.5 44.5t48.5 16.5h135q65 0 78 -74q140 -841 305 -1243q94 212 179 550t137 693q10 74 77 74h95q69 0 79 -74q50 -345 131.5 -671t180.5 -572q87 202 168.5 539.5t138.5 703.5q3 34 23 54t55 20h125q31 0 48 -15.5t17 -41.5l-2 -17 q-66 -433 -179 -838.5t-214 -623.5h-340q-66 143 -144 391t-135 518q-59 -272 -136 -522.5t-140 -386.5h-350q-107 224 -222 634.5t-176 827.5z" />
<glyph unicode="X" horiz-adv-x="1343" d="M61 39q0 12 13 35l444 702l-434 686q-12 21 -12 33q0 19 16 30t41 11h156q33 0 55.5 -18t46.5 -56l283 -446l284 446q24 38 47.5 56t57.5 18h129q53 0 53 -39q0 -12 -10 -35l-422 -665l461 -723q12 -21 12 -33q0 -18 -15.5 -29.5t-39.5 -11.5h-166q-22 0 -39.5 10.5 t-26.5 22.5t-28 41l-310 485l-307 -485q-25 -38 -47.5 -56t-56.5 -18h-127q-58 0 -58 39z" />
<glyph unicode="Y" horiz-adv-x="1320" d="M57 1493q0 20 16.5 31.5t43.5 11.5h135q33 0 54 -18t42 -56l322 -631l329 631q41 74 97 74h116q26 0 42 -10.5t16 -30.5q0 -13 -10 -33l-469 -850v-538q0 -34 -20 -54t-54 -20h-115q-35 0 -54.5 20t-19.5 54v530l-460 858q-11 22 -11 31z" />
<glyph unicode="Z" horiz-adv-x="1269" d="M88 74v30q0 31 25 62q188 242 413.5 592.5t311.5 556.5h-643q-35 0 -54.5 19.5t-19.5 54.5v73q0 34 19.5 54t54.5 20h909q35 0 54.5 -20t19.5 -54v-22q0 -22 -13 -51q-96 -219 -321.5 -585t-390.5 -583h661q34 0 54 -19.5t20 -54.5v-73q0 -34 -20 -54t-54 -20h-952 q-34 0 -54 20t-20 54z" />
<glyph unicode="[" horiz-adv-x="843" d="M193 -178v1642q0 34 19 53t54 19h363q47 0 67.5 -11.5t20.5 -51.5v-52q0 -35 -21.5 -49t-66.5 -14h-185v-1432h185q46 0 67 -13t21 -50v-53q0 -35 -21.5 -49.5t-66.5 -14.5h-363q-35 0 -54 20t-19 56z" />
<glyph unicode="\" horiz-adv-x="1097" d="M76 1491q0 21 16 33t43 12h92q62 0 95 -74l694 -1644q6 -15 6 -29q0 -21 -16 -33t-43 -12h-93q-35 0 -56.5 18.5t-37.5 55.5l-694 1644q-6 15 -6 29z" />
<glyph unicode="]" horiz-adv-x="843" d="M127 -137q0 35 21.5 49t66.5 14h184v1432h-184q-46 0 -67 13t-21 50v54q0 35 21.5 49t66.5 14h363q35 0 54 -20t19 -56v-1642q0 -34 -19 -53t-54 -19h-363q-47 0 -67.5 12t-20.5 52v51z" />
<glyph unicode="^" d="M106 266q0 11 11 33l387 748q20 37 42.5 55t55.5 18h78q32 0 54 -18t44 -55l387 -748q11 -22 11 -33q0 -20 -16.5 -31.5t-41.5 -11.5h-94q-33 0 -55 19t-41 57l-287 582l-287 -582q-19 -38 -41 -57t-55 -19h-94q-27 0 -42.5 11.5t-15.5 31.5z" />
<glyph unicode="_" d="M63 -74q0 34 20 54t54 20h1006q34 0 54 -20t20 -54v-63q0 -35 -20 -55.5t-54 -20.5h-1004q-35 0 -55.5 20.5t-20.5 55.5v63z" />
<glyph unicode="`" horiz-adv-x="446" d="M0 1571q0 28 51 28h156q32 0 55 -17t49 -56l121 -172q14 -20 14 -35q0 -18 -16 -28.5t-41 -10.5h-51q-12 0 -23 3t-18 5.5t-20 12t-17.5 13.5t-22 19.5t-22.5 20.5l-186 172q-29 26 -29 45z" />
<glyph unicode="a" horiz-adv-x="1282" d="M115 362v193q0 169 82 299.5t215.5 198t294.5 67.5h321q34 0 54 -19.5t20 -53.5v-973q0 -34 -20 -54t-54 -20h-106q-34 0 -54 20t-20 54v112l-80 -69q-73 -65 -147.5 -99t-167.5 -34q-156 0 -247 96t-91 282zM369 387q0 -100 39.5 -142t113.5 -42q105 0 262 137l64 53 v514h-127q-162 0 -257 -92.5t-95 -259.5v-168z" />
<glyph unicode="b" horiz-adv-x="1282" d="M176 74v1388q0 34 20 54t54 20h104q35 0 55.5 -20t20.5 -54v-528l80 70q75 65 148.5 99t166.5 34q156 0 247 -96t91 -283v-195q0 -168 -82 -298t-215.5 -197.5t-294.5 -67.5h-321q-34 0 -54 20t-20 54zM430 213h127q161 0 256.5 92.5t95.5 257.5v168q0 102 -40 144.5 t-115 42.5q-102 0 -260 -138l-64 -55v-512z" />
<glyph unicode="c" horiz-adv-x="1073" d="M100 444v211q0 112 42 204.5t113 152.5t162 92.5t191 32.5q97 0 189.5 -22t158.5 -58v-252q0 -36 -19.5 -56t-53.5 -20h-70q-34 0 -54 20t-20 56v88q-48 25 -131 25q-112 0 -183 -68t-71 -201v-174q0 -134 70 -203t199 -69q111 0 249 41q15 6 27 6q49 0 49 -55v-76 q0 -36 -14 -56t-47 -30q-144 -49 -269 -49q-238 0 -378 115t-140 345z" />
<glyph unicode="d" horiz-adv-x="1282" d="M115 362v193q0 169 82 299.5t215.5 198t294.5 67.5h141v342q0 34 20 54t54 20h106q34 0 54 -20t20 -54v-1388q0 -34 -20 -54t-54 -20h-106q-34 0 -54 20t-20 54v112l-80 -69q-73 -65 -147.5 -99t-167.5 -34q-156 0 -246.5 95.5t-91.5 282.5zM369 387q0 -100 39.5 -142 t113.5 -42q105 0 262 137l64 53v514h-127q-162 0 -257 -92.5t-95 -259.5v-168z" />
<glyph unicode="e" horiz-adv-x="1165" d="M102 436v219q0 114 40 206t110 152t165 92t206 32q96 0 173 -18.5t137.5 -58t93 -106.5t32.5 -157q0 -159 -102 -241.5t-279 -82.5h-322v-41q0 -121 75.5 -175t201.5 -54q137 0 272 41q16 4 23 4q24 0 38.5 -18t14.5 -46v-67q0 -66 -76 -88q-151 -45 -287 -45 q-115 0 -207 25.5t-162.5 78.5t-108.5 141t-38 207zM356 643h283q96 0 137 35.5t41 109.5q0 76 -50 106t-144 30q-267 0 -267 -265v-16z" />
<glyph unicode="f" horiz-adv-x="724" d="M41 981v66q0 34 20 53.5t56 19.5h98v41q0 181 103 278t280 97h96q35 0 54.5 -20t19.5 -54v-51q0 -35 -19.5 -54.5t-54.5 -19.5h-47q-94 0 -136 -42.5t-42 -139.5v-35h193q73 0 73 -73v-66q0 -35 -18.5 -54.5t-54.5 -19.5h-193v-833q0 -34 -19.5 -54t-54.5 -20h-102 q-36 0 -57 20t-21 54v833h-98q-36 0 -56 20t-20 54z" />
<glyph unicode="g" horiz-adv-x="1282" d="M115 457v98q0 173 77.5 303t206.5 196t289 66h340q34 0 54 -19.5t20 -53.5v-897q0 -269 -155.5 -402t-438.5 -133h-203q-35 0 -54.5 20.5t-19.5 55.5v63q0 34 19.5 54t54.5 20h148q211 0 303 71t92 253v30l-43 -20q-13 -6 -52 -24.5t-62 -28t-60.5 -22t-76 -18.5 t-79.5 -6q-164 0 -262 101t-98 293zM369 481q0 -103 43.5 -150.5t128.5 -47.5q121 0 266 69l41 21v534h-146q-160 0 -246.5 -91.5t-86.5 -260.5v-74z" />
<glyph unicode="h" horiz-adv-x="1323" d="M176 74v1388q0 34 20 54t54 20h104q35 0 55.5 -20t20.5 -54v-534l66 59q82 74 161 112t179 38q151 0 232 -91.5t81 -281.5v-690q0 -34 -21 -54t-57 -20h-102q-35 0 -54.5 20t-19.5 54v651q0 103 -36.5 148t-108.5 45q-22 0 -47.5 -8t-43 -15.5t-48 -29t-40 -28.5 t-43 -34.5t-34.5 -28.5l-64 -53v-647q0 -34 -20.5 -54t-55.5 -20h-104q-34 0 -54 20t-20 54z" />
<glyph unicode="i" horiz-adv-x="641" d="M31 981v66q0 34 19 53.5t54 19.5h281q35 0 55.5 -19.5t20.5 -53.5v-975q0 -34 -20.5 -53t-55.5 -19h-102q-36 0 -56 19t-20 53v835h-103q-36 0 -54.5 19.5t-18.5 54.5zM207 1378v84q0 34 19 54t55 20h104q35 0 55.5 -20t20.5 -54v-84q0 -35 -20 -54t-56 -19h-104 q-74 0 -74 73z" />
<glyph unicode="j" horiz-adv-x="649" d="M-100 -246q0 34 20 54t55 20h17q127 0 178 63.5t51 204.5v811h-100q-35 0 -55.5 20t-20.5 54v66q0 34 20.5 53.5t55.5 19.5h280q35 0 54.5 -19.5t19.5 -53.5v-945q0 -255 -128.5 -371t-371.5 -116q-35 0 -55 20.5t-20 55.5v63zM221 1378v84q0 34 20 54t56 20h104 q35 0 54.5 -20t19.5 -54v-84q0 -35 -19.5 -54t-54.5 -19h-104q-76 0 -76 73z" />
<glyph unicode="k" horiz-adv-x="1196" d="M176 74v1388q0 34 20 54t54 20h104q35 0 55.5 -20t20.5 -54v-753h98l283 338q32 38 57.5 55.5t57.5 17.5h149q47 0 47 -37q0 -15 -18 -36l-371 -431l389 -542q15 -21 15 -35q0 -39 -50 -39h-155q-31 0 -55 18t-52 56l-297 422h-98v-422q0 -34 -20.5 -54t-55.5 -20h-104 q-34 0 -54 20t-20 54z" />
<glyph unicode="l" horiz-adv-x="624" d="M14 1399v63q0 34 19.5 54t54.5 20h281q35 0 55 -20t20 -54v-1388q0 -34 -20 -54t-55 -20h-105q-35 0 -54.5 20t-19.5 54v1249h-102q-35 0 -54.5 20.5t-19.5 55.5z" />
<glyph unicode="m" horiz-adv-x="2025" d="M176 74v973q0 34 20 53.5t54 19.5h104q35 0 55.5 -19.5t20.5 -53.5v-119l62 59q76 74 155.5 112t181.5 38q226 0 289 -203h25l57 53q78 74 158.5 112t181.5 38q311 0 311 -373v-690q0 -34 -19.5 -54t-55.5 -20h-105q-34 0 -54 20t-20 54v651q0 104 -35.5 148.5 t-107.5 44.5q-42 0 -94 -26.5t-82.5 -51t-77.5 -66.5l-59 -53v-647q0 -34 -20 -54t-54 -20h-104q-36 0 -56 20t-20 54v651q0 103 -37 148t-109 45q-41 0 -93 -26.5t-82 -51t-77 -66.5l-59 -53v-647q0 -34 -20.5 -54t-55.5 -20h-104q-34 0 -54 20t-20 54z" />
<glyph unicode="n" horiz-adv-x="1323" d="M176 74v973q0 34 20 53.5t54 19.5h104q35 0 55.5 -19.5t20.5 -53.5v-119l66 59q82 74 161 112t179 38q151 0 232 -91.5t81 -281.5v-690q0 -34 -21 -54t-57 -20h-102q-35 0 -54.5 20t-19.5 54v651q0 103 -36.5 148t-108.5 45q-22 0 -47.5 -8t-43 -15.5t-48 -29t-40 -28.5 t-43 -34.5t-34.5 -28.5l-64 -53v-647q0 -34 -20.5 -54t-55.5 -20h-104q-34 0 -54 20t-20 54z" />
<glyph unicode="o" horiz-adv-x="1249" d="M96 569q0 274 134.5 421t392.5 147q266 0 397 -146t131 -422q0 -295 -131 -440t-397 -145t-396.5 145t-130.5 440zM350 569q0 -181 62.5 -273.5t210.5 -92.5q147 0 209.5 92.5t62.5 273.5q0 179 -61.5 264t-210.5 85t-211 -85.5t-62 -263.5z" />
<glyph unicode="p" horiz-adv-x="1282" d="M176 -309v1356q0 34 20 53.5t54 19.5h104q35 0 55.5 -19.5t20.5 -53.5v-113l80 70q75 65 148.5 99t166.5 34q156 0 247 -96t91 -283v-195q0 -168 -82 -298t-215.5 -197.5t-294.5 -67.5h-141v-309q0 -35 -20.5 -55.5t-55.5 -20.5h-104q-34 0 -54 20.5t-20 55.5zM430 213 h127q161 0 256.5 92.5t95.5 257.5v168q0 102 -40 144.5t-115 42.5q-96 0 -260 -138l-64 -55v-512z" />
<glyph unicode="q" horiz-adv-x="1282" d="M117 354v201q0 116 36.5 211.5t99.5 160.5t150 109t186 64t210 20h227q35 0 54.5 -19.5t19.5 -53.5v-1356q0 -35 -19.5 -55.5t-54.5 -20.5h-104q-35 0 -54.5 20.5t-19.5 55.5v493l-27 -22q-56 -48 -85.5 -70.5t-78.5 -52.5t-98.5 -42.5t-107.5 -12.5q-155 0 -244.5 93.5 t-89.5 276.5zM369 381q0 -98 39.5 -139t113.5 -41q99 0 262 137l64 55v514h-127q-162 0 -257 -92.5t-95 -259.5v-174z" />
<glyph unicode="r" horiz-adv-x="851" d="M174 111v897q0 56 16.5 84t59.5 28h104q42 0 58 -27.5t16 -84.5v-93q51 70 91.5 111.5t100 70.5t128.5 29h8q73 0 73 -94v-69q0 -35 -19 -54.5t-54 -19.5h-25q-25 0 -46.5 -2t-42.5 -9t-35.5 -11.5t-34.5 -18.5t-29.5 -19.5t-30 -24.5t-26.5 -25l-29.5 -29.5l-28.5 -28.5 v-612q0 -53 -15.5 -81t-58.5 -28h-104q-44 0 -60 29t-16 82z" />
<glyph unicode="s" horiz-adv-x="1077" d="M115 801q0 162 133 249t354 87q110 0 240 -21q36 -6 50.5 -23.5t14.5 -52.5v-82q0 -32 -14 -45.5t-45 -13.5q-18 0 -103 11.5t-147 11.5q-64 0 -111.5 -10.5t-79.5 -37.5t-32 -69q0 -24 8 -42t18.5 -28.5t31 -19.5t36 -13t43.5 -10l143 -33q69 -15 120.5 -37t98 -58.5 t71 -95t24.5 -136.5q0 -96 -41 -166t-113.5 -108.5t-158 -56t-187.5 -17.5q-132 0 -285 26q-36 7 -50.5 24.5t-14.5 51.5v82q0 59 57 59q15 0 23 -2q106 -26 270 -26q104 0 172 30.5t68 100.5q0 53 -37.5 81t-102.5 44l-172 39q-282 67 -282 307z" />
<glyph unicode="t" horiz-adv-x="845" d="M43 981v66q0 34 19.5 53.5t54.5 19.5h98v197q0 34 20.5 53t57.5 19h102q35 0 54.5 -19t19.5 -53v-197h233q34 0 54 -19.5t20 -53.5v-66q0 -34 -20 -54t-54 -20h-233v-481q0 -107 49 -160t152 -53h63q35 0 55.5 -20.5t20.5 -55.5v-63q0 -34 -20.5 -54t-55.5 -20h-106 q-192 0 -302 101t-110 292v514h-98q-36 0 -55 20t-19 54z" />
<glyph unicode="u" horiz-adv-x="1323" d="M172 356v691q0 34 19.5 53.5t54.5 19.5h104q35 0 54.5 -19.5t19.5 -53.5v-654q0 -102 35.5 -146t107.5 -44q32 0 66.5 12t74.5 40.5t57.5 42t59.5 48.5l66 53v648q0 34 19 53.5t55 19.5h102q36 0 56 -19.5t20 -53.5v-973q0 -34 -20 -54t-56 -20h-102q-36 0 -55 20t-19 54 v119l-68 -62q-81 -73 -160.5 -110t-181.5 -37q-309 0 -309 372z" />
<glyph unicode="v" horiz-adv-x="1122" d="M88 831v216q0 34 20.5 53.5t55.5 19.5h104q34 0 54 -19.5t20 -53.5v-216q0 -206 64.5 -383t154.5 -274q90 94 151.5 271.5t61.5 385.5v216q0 34 20.5 53.5t55.5 19.5h104q34 0 54 -19.5t20 -53.5v-216q0 -135 -36 -276t-89.5 -249t-109 -187.5t-101.5 -118.5h-282 q-45 38 -98.5 118t-104.5 188t-85 248.5t-34 276.5z" />
<glyph unicode="w" horiz-adv-x="1658" d="M88 831v216q0 34 20.5 53.5t55.5 19.5h104q34 0 54 -19.5t20 -53.5v-216q0 -210 51 -387t127 -270q77 93 128.5 270t51.5 387v216q0 34 19.5 53.5t54.5 19.5h105q35 0 55 -19.5t20 -53.5v-216q0 -210 51.5 -387t127.5 -270q77 93 128.5 270t51.5 387v216q0 73 73 73h105 q34 0 54 -19.5t20 -53.5v-216q0 -136 -29.5 -275t-75 -246t-94.5 -187.5t-94 -122.5h-271q-39 41 -99 151t-79 189q-18 -77 -80 -186t-104 -154h-270q-44 42 -92 122.5t-91 187.5t-70.5 246t-27.5 275z" />
<glyph unicode="x" horiz-adv-x="1052" d="M51 39q0 14 15 35l329 487l-315 486q-12 21 -12 34q0 39 47 39h133q33 0 55.5 -17.5t48.5 -55.5l180 -281l189 281q24 38 46.5 55.5t55.5 17.5h119q47 0 47 -39q0 -13 -12 -34l-320 -474l326 -499q12 -17 12 -35q0 -39 -47 -39h-131q-33 0 -56.5 18.5t-47.5 55.5 l-193 295l-198 -295q-26 -38 -49.5 -56t-57.5 -18h-115q-49 0 -49 39z" />
<glyph unicode="y" horiz-adv-x="1316" d="M166 432v615q0 34 20 53.5t54 19.5h106q34 0 54 -19.5t20 -53.5v-586q0 -97 39 -138.5t112 -41.5q107 0 254 127l58 49v590q0 34 19 53.5t54 19.5h107q34 0 54 -19.5t20 -53.5v-897q0 -268 -156 -401.5t-438 -133.5h-189q-38 0 -60 22t-22 60v51q0 36 22 58t60 22h131 q213 0 305.5 72.5t92.5 257.5v90l-76 -64q-70 -58 -141.5 -89.5t-165.5 -31.5q-159 0 -246.5 89.5t-87.5 279.5z" />
<glyph unicode="z" horiz-adv-x="1046" d="M88 74v32q0 35 8.5 57t32.5 48q146 147 298 340t245 356h-482q-36 0 -55.5 20t-19.5 54v66q0 34 19 53.5t54 19.5h707q35 0 55.5 -19.5t20.5 -53.5v-33q0 -63 -27 -113q-83 -154 -244 -368.5t-274 -319.5h485q35 0 54.5 -20.5t19.5 -55.5v-63q0 -34 -19.5 -54t-54.5 -20 h-747q-34 0 -55 20t-21 54z" />
<glyph unicode="{" horiz-adv-x="1009" d="M127 612v56q0 51 57 57q128 18 181 72t53 155v193q0 213 92.5 302t314.5 89h54q65 0 65 -63v-54q0 -63 -65 -63h-31q-106 0 -141 -42.5t-35 -164.5v-205q0 -73 -20 -127.5t-58 -88.5t-82.5 -54t-103.5 -33q59 -13 103 -33.5t82.5 -55t58.5 -89t20 -127.5v-207 q0 -120 35 -162.5t141 -42.5h31q65 0 65 -63v-54q0 -63 -65 -63h-54q-222 0 -314.5 89t-92.5 300v193q0 101 -52.5 155t-181.5 72q-57 6 -57 59z" />
<glyph unicode="|" horiz-adv-x="638" d="M211 -309v1898q0 74 76 74h65q74 0 74 -72v-1900q0 -35 -19.5 -55.5t-54.5 -20.5h-65q-36 0 -56 20t-20 56z" />
<glyph unicode="}" horiz-adv-x="1009" d="M63 -139q0 63 66 63h31q106 0 141 42.5t35 162.5v207q0 73 20.5 127.5t59 89t82.5 55t102 33.5q-58 13 -102.5 33t-82.5 54t-58.5 88.5t-20.5 127.5v205q0 122 -35 164.5t-141 42.5h-31q-66 0 -66 63v54q0 30 17 46.5t49 16.5h53q222 0 315 -89t93 -302v-193 q0 -101 53 -155t180 -72q58 -6 58 -57v-56q0 -53 -58 -59q-128 -18 -180.5 -72t-52.5 -155v-193q0 -211 -93 -300t-315 -89h-53q-66 0 -66 63v54z" />
<glyph unicode="~" d="M193 604v78q0 63 73 119q78 57 166 57q48 0 110.5 -21t113 -46.5t107 -46.5t93.5 -21q106 0 158 55q27 27 47 27q26 0 26 -47v-72q0 -34 -17 -60.5t-56 -58.5q-31 -24 -76.5 -40.5t-89.5 -16.5q-48 0 -110.5 21t-113 46.5t-107 46.5t-93.5 21q-97 0 -158 -61 q-30 -27 -49 -27q-24 0 -24 47z" />
<glyph unicode="&#xa1;" horiz-adv-x="610" d="M176 1354v110q0 72 94 72h66q94 0 94 -72v-110q0 -74 -94 -74h-66q-94 0 -94 74zM178 70l21 929q0 31 17.5 48.5t49.5 17.5h74q32 0 49 -17.5t17 -48.5l22 -925q1 -33 -19.5 -53.5t-54.5 -20.5h-102q-34 0 -54 19t-20 51z" />
<glyph unicode="&#xa2;" d="M90 678v180q0 292 159 469.5t437 214.5v160q0 35 20 54.5t54 19.5h53q35 0 55.5 -19.5t20.5 -54.5v-150q110 -5 237 -39q74 -20 74 -86v-73q0 -30 -13.5 -47t-37.5 -17q-15 0 -23 2q-148 37 -323 37q-207 0 -325 -115.5t-118 -349.5v-186q0 -224 107 -347.5t309 -123.5 h96q108 0 254 43q20 4 25 4q49 0 49 -59v-76q0 -67 -74 -90q-130 -43 -231 -45v-166q0 -34 -19 -54t-55 -20h-51q-35 0 -55.5 20t-20.5 54v170q-199 14 -336 104t-202.5 238t-65.5 348z" />
<glyph unicode="&#xa3;" d="M121 74v73q0 74 76 74h26q65 51 96 137.5t31 180.5v147h-104q-35 0 -55.5 20t-20.5 54v76q0 35 20 53t56 18h104v111q0 246 145.5 382t399.5 136h172q35 0 55.5 -20t20.5 -54v-73q0 -36 -20 -55t-56 -19h-172q-141 0 -212 -75t-71 -222v-111h344q36 0 56 -18t20 -53v-76 q0 -34 -20.5 -54t-55.5 -20h-344v-147q0 -95 -30.5 -182t-96.5 -136h582q36 0 56 -19t20 -55v-73q0 -34 -20.5 -54t-55.5 -20h-870q-36 0 -56 20t-20 54z" />
<glyph unicode="&#xa4;" horiz-adv-x="1024" d="M57 1071l93 94l139 -155q97 84 235 84h2q69 0 131.5 -22t104.5 -60l145 153l92 -94l-161 -145q71 -95 71 -242q0 -157 -71 -250l153 -151l-90 -90l-141 155q-44 -41 -109.5 -63.5t-130.5 -22.5q-64 0 -128 22t-105 60l-137 -151l-89 90l148 143q-33 44 -54.5 109.5 t-21.5 138.5q0 151 80 252zM279 676q0 -137 75 -211t166 -74q98 0 171 72.5t73 218.5q0 74 -27 137t-83 104.5t-132 41.5h-2q-110 0 -175.5 -82.5t-65.5 -206.5z" />
<glyph unicode="&#xa5;" d="M53 1495q0 20 16.5 30.5t43.5 10.5h133q33 0 55 -18t45 -56l305 -567l305 567q21 38 43 56t56 18h112q27 0 43.5 -11.5t16.5 -31.5q0 -11 -10 -31l-449 -780v-127h305q35 0 55.5 -19.5t20.5 -54.5v-75q0 -34 -20.5 -54t-55.5 -20h-305v-258q0 -34 -20 -54t-54 -20h-114 q-35 0 -54.5 20t-19.5 54v258h-305q-36 0 -56 20t-20 54v75q0 35 19.5 54.5t56.5 19.5h305v127l-443 780q-10 15 -10 33z" />
<glyph unicode="&#xa6;" horiz-adv-x="638" d="M211 -309v684q0 34 20 54t56 20h65q35 0 54.5 -20t19.5 -54v-684q0 -35 -19.5 -55.5t-54.5 -20.5h-65q-36 0 -56 20t-20 56zM211 905v684q0 35 19.5 54.5t56.5 19.5h65q35 0 54.5 -19.5t19.5 -54.5v-684q0 -34 -19.5 -54t-54.5 -20h-65q-36 0 -56 20t-20 54z" />
<glyph unicode="&#xa7;" horiz-adv-x="1097" d="M82 -236q0 35 20 54.5t54 19.5h325q87 0 135 35t48 107q0 64 -29 107t-94 81l-353 213q-39 24 -57 45.5t-18 52.5v109q0 59 41 59q11 0 34 -10l478 -277q58 -34 102 -68.5t83 -81.5t60 -107.5t21 -131.5q0 -111 -64.5 -193.5t-166 -122.5t-224.5 -40h-321q-34 0 -54 20.5 t-20 55.5v73zM201 1180q0 111 64.5 193.5t166 122.5t223.5 40h324q34 0 54 -20t20 -54v-73q0 -36 -20 -55t-54 -19h-328q-86 0 -134 -36t-48 -108q0 -64 29.5 -106t95.5 -82l352 -211q39 -25 56.5 -46t17.5 -54v-109q0 -26 -10.5 -42.5t-28.5 -16.5q-14 0 -35 12l-477 277 q-58 34 -102 68.5t-84 81.5t-61 107t-21 130z" />
<glyph unicode="&#xa8;" horiz-adv-x="784" d="M0 1317v82q0 34 19.5 54t54.5 20h106q34 0 54 -20t20 -54v-82q0 -35 -20 -55.5t-54 -20.5h-106q-35 0 -54.5 20.5t-19.5 55.5zM530 1317v82q0 34 19 54t55 20h107q34 0 53.5 -20t19.5 -54v-82q0 -35 -19.5 -55.5t-53.5 -20.5h-107q-36 0 -55 20t-19 56z" />
<glyph unicode="&#xa9;" horiz-adv-x="1777" d="M96 784q0 220 105 392.5t286 266t404 93.5q222 0 401.5 -93.5t284 -266t104.5 -392.5t-104.5 -392.5t-284 -265.5t-401.5 -93q-223 0 -404 93t-286 265.5t-105 392.5zM248 784q0 -136 45.5 -252t127.5 -199t203 -130t267 -47q193 0 338.5 81t222 223t76.5 324t-76.5 324 t-222 222.5t-338.5 80.5q-146 0 -267 -47t-203 -129.5t-127.5 -198.5t-45.5 -252zM487 784q0 109 40 192t109 130.5t152.5 70.5t180.5 23q69 0 155 -22q21 -6 30 -15.5t9 -29.5v-25q0 -35 -22 -35q-11 0 -17 2q-90 23 -155 23q-135 0 -219 -79t-84 -235t85.5 -235.5 t219.5 -79.5q71 0 153 20q9 3 17 3q22 0 22 -33v-25q0 -21 -9 -31t-30 -16q-88 -18 -153 -18q-97 0 -181 22.5t-153.5 70t-109.5 130t-40 192.5z" />
<glyph unicode="&#xaa;" horiz-adv-x="1054" d="M90 952v150q0 98 41 180.5t111 137.5t162.5 85.5t195.5 30.5h277q29 0 46 -15t17 -40v-752q0 -25 -17 -40t-46 -15h-93q-29 0 -45 15t-16 40v88l-72 -53q-64 -50 -127 -76t-143 -26q-134 0 -212.5 73.5t-78.5 216.5zM307 973q0 -144 133 -144q82 0 226 107l57 43v395 h-111q-140 0 -222.5 -72t-82.5 -200v-129z" />
<glyph unicode="&#xab;" horiz-adv-x="1200" d="M127 657v64q0 31 17.5 53.5t58.5 54.5l299 246q25 19 41 19q15 0 23.5 -15t8.5 -37v-86q0 -32 -16 -54t-57 -56l-193 -158l193 -156q39 -31 56 -54t17 -56v-86q0 -23 -9.5 -38t-24.5 -15q-13 0 -39 16l-299 248q-40 32 -58 55.5t-18 54.5zM639 657v64q0 31 17.5 53.5 t58.5 54.5l299 246q25 19 41 19q15 0 23.5 -15t8.5 -37v-86q0 -32 -16 -54t-57 -56l-193 -158l193 -156q39 -31 56 -54t17 -56v-86q0 -23 -9.5 -38t-24.5 -15q-13 0 -39 16l-299 248q-40 32 -58 55.5t-18 54.5z" />
<glyph unicode="&#xac;" d="M193 721v63q0 34 19 54t54 20h748q35 0 54 -20t19 -54v-405q0 -36 -19 -56t-54 -20h-68q-35 0 -54.5 20.5t-19.5 55.5v266h-606q-35 0 -54 20t-19 56z" />
<glyph unicode="&#xad;" horiz-adv-x="831" d="M100 721v63q0 34 19.5 54t54.5 20h483q35 0 54.5 -20t19.5 -54v-63q0 -35 -19.5 -55.5t-54.5 -20.5h-481q-36 0 -56 20t-20 56z" />
<glyph unicode="&#xae;" horiz-adv-x="1777" d="M96 784q0 220 105 392.5t286 266t404 93.5q222 0 401.5 -93.5t284 -266t104.5 -392.5t-104.5 -392.5t-284 -265.5t-401.5 -93q-223 0 -404 93t-286 265.5t-105 392.5zM248 784q0 -136 45.5 -252t127.5 -199t203 -130t267 -47q193 0 338.5 81t222 223t76.5 324t-76.5 324 t-222 222.5t-338.5 80.5q-146 0 -267 -47t-203 -129.5t-127.5 -198.5t-45.5 -252zM575 422v725q0 25 15 39t43 14h229q340 0 340 -256q0 -84 -45.5 -146t-122.5 -85l170 -291q8 -13 8 -25t-12 -20t-31 -8h-84q-45 0 -75 53l-127 229h-129v-229q0 -53 -56 -53h-65 q-58 0 -58 53zM754 758h98q74 0 123 47t49 139q0 77 -48.5 115.5t-123.5 38.5h-98v-340z" />
<glyph unicode="&#xaf;" horiz-adv-x="620" d="M0 1354v24q0 34 19.5 54t54.5 20h473q34 0 54 -20t20 -54v-24q0 -34 -20 -54t-54 -20h-473q-35 0 -54.5 20t-19.5 54z" />
<glyph unicode="&#xb0;" horiz-adv-x="1001" d="M137 1100q0 234 89.5 340t277.5 106q186 0 275 -106.5t89 -339.5q0 -230 -89.5 -337.5t-274.5 -107.5q-187 0 -277 107.5t-90 337.5zM338 1100q0 -161 36 -226t130 -65q93 0 127.5 63.5t34.5 227.5q0 168 -34.5 230.5t-127.5 62.5q-95 0 -130.5 -63t-35.5 -230z" />
<glyph unicode="&#xb1;" d="M193 -74q0 34 19 54t54 20h748q35 0 54 -20t19 -54v-63q0 -36 -19 -56t-54 -20h-748q-35 0 -54 20t-19 56v63zM193 721v63q0 34 19 54t54 20h266v268q0 34 19.5 54t54.5 20h68q35 0 54.5 -20t19.5 -54v-268h266q35 0 54 -20t19 -54v-63q0 -36 -19 -56t-54 -20h-266v-266 q0 -35 -19.5 -55.5t-54.5 -20.5h-68q-35 0 -54.5 20.5t-19.5 55.5v266h-266q-35 0 -54 20t-19 56z" />
<glyph unicode="&#xb2;" horiz-adv-x="843" d="M90 721v78q0 177 199 280l121 66q31 16 49.5 27.5t38.5 28.5t29.5 37.5t9.5 45.5q0 57 -37.5 78.5t-116.5 21.5h-205q-31 0 -48 15t-17 41v41q0 25 17.5 40t47.5 15h232q161 0 243 -63.5t82 -186.5q0 -91 -56 -150.5t-167 -115.5l-115 -57q-57 -29 -79.5 -64t-22.5 -84 h391q66 0 66 -55v-39q0 -26 -17.5 -41.5t-48.5 -15.5h-534q-29 0 -45.5 15.5t-16.5 41.5z" />
<glyph unicode="&#xb3;" horiz-adv-x="843" d="M115 721v39q0 55 61 55h223q77 0 123.5 31t46.5 92q0 58 -42 82t-121 24h-123q-31 0 -48.5 15t-17.5 39v32q0 25 17 40.5t47 15.5h174q96 52 96 112q0 47 -38 64.5t-114 17.5h-217q-31 0 -47 15t-16 41v45q0 55 63 55h232q162 0 250 -47.5t88 -161.5q0 -108 -109 -178 q127 -65 127 -211q0 -130 -99.5 -202t-260.5 -72h-232q-63 0 -63 57z" />
<glyph unicode="&#xb4;" horiz-adv-x="446" d="M0 1319q0 15 14 35l119 172q28 39 51.5 56t55.5 17h153q53 0 53 -28q0 -20 -28 -45l-189 -172q-6 -6 -19 -18t-18 -16.5t-15.5 -13t-16.5 -12t-15 -7.5t-17.5 -5.5t-18.5 -1.5h-54q-24 0 -39.5 10.5t-15.5 28.5z" />
<glyph unicode="&#xb6;" horiz-adv-x="1607" d="M63 961q0 140 45 251t123.5 181t183 106.5t226.5 36.5h305q35 0 55.5 -20t20.5 -54v-1771q0 -35 -20.5 -55.5t-55.5 -20.5h-104q-34 0 -54 20.5t-20 55.5v692h-127q-121 0 -225 37t-183.5 107t-124.5 181.5t-45 252.5zM1176 -309v1771q0 34 19.5 54t53.5 20h107 q35 0 54.5 -20t19.5 -54v-1771q0 -35 -19.5 -55.5t-54.5 -20.5h-107q-34 0 -53.5 20.5t-19.5 55.5z" />
<glyph unicode="&#xb7;" horiz-adv-x="610" d="M174 682v109q0 34 19.5 53.5t54.5 19.5h114q34 0 54 -19.5t20 -53.5v-109q0 -34 -20 -54t-54 -20h-114q-35 0 -54.5 20t-19.5 54z" />
<glyph unicode="&#xb8;" horiz-adv-x="462" d="M0 -313q0 53 57 53h136q110 0 110 70q0 64 -102 118v25h133q54 -25 91.5 -73t37.5 -95q0 -86 -63.5 -128t-161.5 -42h-181q-57 0 -57 53v19z" />
<glyph unicode="&#xb9;" horiz-adv-x="843" d="M109 1323v49q0 47 55 66l250 88q33 10 65 10h35q30 0 47 -15t17 -40v-760q0 -27 -17 -42t-47 -15h-72q-30 0 -46.5 15t-16.5 42v622l-203 -67q-16 -4 -24 -4q-20 0 -31.5 14.5t-11.5 36.5z" />
<glyph unicode="&#xba;" horiz-adv-x="1024" d="M61 1112q0 212 115.5 324t337.5 112q455 0 455 -436q0 -450 -455 -450q-453 0 -453 450zM281 1112q0 -139 54 -211t179 -72q128 0 182 71.5t54 211.5q0 137 -53.5 202.5t-182.5 65.5q-127 0 -180 -65.5t-53 -202.5z" />
<glyph unicode="&#xbb;" horiz-adv-x="1200" d="M113 336v86q0 33 17 56t56 54l193 156l-193 158q-41 34 -57 56t-16 54v86q0 22 8.5 37t23.5 15q16 0 41 -19l299 -246q40 -31 57 -54t17 -54v-64q0 -32 -17.5 -55.5t-56.5 -54.5l-299 -248q-26 -16 -39 -16q-15 0 -24.5 15t-9.5 38zM625 336v86q0 33 17 56t56 54l193 156 l-193 158q-41 34 -57 56t-16 54v86q0 22 8.5 37t23.5 15q16 0 41 -19l299 -246q40 -31 57 -54t17 -54v-64q0 -32 -17.5 -55.5t-56.5 -54.5l-299 -248q-26 -16 -39 -16q-15 0 -24.5 15t-9.5 38z" />
<glyph unicode="&#xbc;" horiz-adv-x="2004" d="M162 1323v49q0 46 55 66l252 88q30 10 66 10h32q32 0 49 -15t17 -40v-760q0 -27 -17 -42t-49 -15h-71q-29 0 -46.5 15.5t-17.5 41.5v622l-203 -67q-16 -4 -22 -4q-21 0 -33 14.5t-12 36.5zM567 35q0 4 8 24l703 1418q32 59 82 59h26q50 0 50 -37q0 -10 -6 -22l-705 -1418 q-29 -59 -80 -59h-24q-54 0 -54 35zM1155 225v27q0 37 14 51q133 184 201 516q10 53 68 53h82q59 0 59 -47q0 -18 -10 -63q-62 -231 -195 -443h213v154q0 26 18.5 40.5t49.5 14.5h71q30 0 47 -14.5t17 -40.5v-154h45q29 0 46 -14.5t17 -40.5v-39q0 -25 -17 -40t-46 -15h-45 v-115q0 -25 -17.5 -40t-46.5 -15h-71q-31 0 -49.5 15t-18.5 40v115h-368q-29 0 -46.5 15t-17.5 40z" />
<glyph unicode="&#xbd;" horiz-adv-x="2004" d="M162 1323v49q0 46 55 66l252 88q30 10 66 10h32q32 0 49 -15t17 -40v-760q0 -27 -17 -42t-49 -15h-71q-29 0 -46.5 15.5t-17.5 41.5v622l-203 -67q-16 -4 -22 -4q-21 0 -33 14.5t-12 36.5zM567 35q0 4 8 24l703 1418q32 59 82 59h26q50 0 50 -37q0 -10 -6 -22l-705 -1418 q-29 -59 -80 -59h-24q-54 0 -54 35zM1212 55v78q0 179 197 283l123 63q31 17 49.5 28.5t38.5 29.5t29.5 38.5t9.5 45.5q0 57 -38 78.5t-118 21.5h-203q-65 0 -65 55v39q0 26 17 41.5t48 15.5h232q161 0 243.5 -63t82.5 -186q0 -91 -56.5 -151t-167.5 -116l-114 -57 q-45 -25 -84 -66.5t-39 -64.5q0 -16 18 -16h393q66 0 66 -56v-41q0 -25 -18 -40t-48 -15h-534q-29 0 -45.5 15t-16.5 40z" />
<glyph unicode="&#xbe;" horiz-adv-x="2004" d="M115 721v39q0 55 61 55h223q77 0 123.5 31t46.5 92q0 58 -42 82t-121 24h-123q-31 0 -48.5 15t-17.5 39v32q0 25 17 40.5t47 15.5h174q96 52 96 112q0 47 -38 64.5t-114 17.5h-217q-31 0 -47 15t-16 41v45q0 55 63 55h232q162 0 250 -47.5t88 -161.5q0 -108 -109 -178 q127 -65 127 -211q0 -130 -99.5 -202t-260.5 -72h-232q-63 0 -63 57zM567 35q0 4 8 24l703 1418q32 59 82 59h26q50 0 50 -37q0 -10 -6 -22l-705 -1418q-29 -59 -80 -59h-24q-54 0 -54 35zM1147 225v27q0 36 12 51q133 184 201 516q10 53 67 53h82q28 0 45 -12t17 -35 q0 -29 -27 -112q-64 -207 -180 -394h215v154q0 26 17.5 40.5t48.5 14.5h71q30 0 47 -14.5t17 -40.5v-154h47q28 0 44.5 -14.5t16.5 -40.5v-39q0 -25 -16.5 -40t-44.5 -15h-47v-115q0 -25 -17.5 -40t-46.5 -15h-71q-31 0 -48.5 15t-17.5 40v115h-371q-29 0 -45 15t-16 40z " />
<glyph unicode="&#xbf;" horiz-adv-x="966" d="M61 352q0 159 185 379l203 238v51q0 37 21 58.5t60 21.5h91q37 0 58 -21.5t21 -58.5v-29q0 -28 -16 -49l-223 -264q-75 -90 -110.5 -161t-35.5 -138q0 -162 240 -162h199q38 0 59 -21t21 -59v-57q0 -36 -21 -58t-59 -22h-273q-212 0 -316 87.5t-104 264.5zM449 1360v96 q0 37 21 58.5t60 21.5h91q37 0 58 -21.5t21 -58.5v-96q0 -36 -21.5 -58t-57.5 -22h-91q-39 0 -60 22t-21 58z" />
<glyph unicode="&#xc0;" horiz-adv-x="1445" d="M66 51q0 13 2 21q15 61 29.5 118.5t25 96.5t27 96t23.5 82.5t27.5 94.5t28.5 95q67 229 172 504t158 377h334q53 -102 158 -377t172 -504q8 -28 28 -95t28 -93.5t24 -83t26 -95.5t24.5 -96.5t28.5 -119.5q2 -8 2 -21q0 -24 -17.5 -37.5t-47.5 -13.5h-133q-66 0 -82 72 q-26 114 -72 288h-629q-14 -54 -37.5 -154t-31.5 -134q-19 -72 -84 -72h-119q-30 0 -47.5 13.5t-17.5 37.5zM465 582h508q-2 6 -5 20.5t-5 20.5q-134 486 -240 704q-104 -213 -246 -704q-10 -35 -12 -41zM469 1987q0 28 51 28h156q32 0 55 -17t49 -56l121 -173 q14 -20 14 -34q0 -18 -16 -28.5t-41 -10.5h-51q-10 0 -18.5 1.5t-18 6t-15 7t-17 11.5t-15.5 12.5t-19 16.5t-20 18l-186 173q-29 26 -29 45z" />
<glyph unicode="&#xc1;" horiz-adv-x="1445" d="M66 51q0 13 2 21q15 61 29.5 118.5t25 96.5t27 96t23.5 82.5t27.5 94.5t28.5 95q67 229 172 504t158 377h334q53 -102 158 -377t172 -504q8 -28 28 -95t28 -93.5t24 -83t26 -95.5t24.5 -96.5t28.5 -119.5q2 -8 2 -21q0 -24 -17.5 -37.5t-47.5 -13.5h-133q-66 0 -82 72 q-26 114 -72 288h-629q-14 -54 -37.5 -154t-31.5 -134q-19 -72 -84 -72h-119q-30 0 -47.5 13.5t-17.5 37.5zM465 582h508q-2 6 -5 20.5t-5 20.5q-134 486 -240 704q-104 -213 -246 -704q-10 -35 -12 -41zM532 1735q0 13 15 34l119 173q28 39 51 56t55 17h154q53 0 53 -28 q0 -19 -29 -45l-188 -173q-4 -4 -17 -16t-16.5 -15t-14 -11.5t-14.5 -11t-12.5 -8t-15 -7t-14.5 -3t-17 -1.5h-53q-24 0 -40 10.5t-16 28.5z" />
<glyph unicode="&#xc2;" horiz-adv-x="1445" d="M66 51q0 13 2 21q15 61 29.5 118.5t25 96.5t27 96t23.5 82.5t27.5 94.5t28.5 95q67 229 172 504t158 377h334q53 -102 158 -377t172 -504q8 -28 28 -95t28 -93.5t24 -83t26 -95.5t24.5 -96.5t28.5 -119.5q2 -8 2 -21q0 -24 -17.5 -37.5t-47.5 -13.5h-133q-66 0 -82 72 q-26 114 -72 288h-629q-14 -54 -37.5 -154t-31.5 -134q-19 -72 -84 -72h-119q-30 0 -47.5 13.5t-17.5 37.5zM346 1729q0 14 23 40l168 191q24 28 37 40.5t33 23t42 10.5h152q31 0 54.5 -17t57.5 -57l166 -191q21 -24 21 -38q0 -35 -53 -35h-56q-21 0 -41.5 10t-36 23 t-43.5 40l-147 142l-148 -142q-30 -29 -43.5 -40.5t-34.5 -22t-42 -10.5h-56q-23 0 -38 9t-15 24zM465 582h508q-2 6 -5 20.5t-5 20.5q-134 486 -240 704q-104 -213 -246 -704q-10 -35 -12 -41z" />
<glyph unicode="&#xc3;" horiz-adv-x="1445" d="M66 51q0 13 2 21q15 61 29.5 118.5t25 96.5t27 96t23.5 82.5t27.5 94.5t28.5 95q67 229 172 504t158 377h334q53 -102 158 -377t172 -504q8 -28 28 -95t28 -93.5t24 -83t26 -95.5t24.5 -96.5t28.5 -119.5q2 -8 2 -21q0 -24 -17.5 -37.5t-47.5 -13.5h-133q-66 0 -82 72 q-26 114 -72 288h-629q-14 -54 -37.5 -154t-31.5 -134q-19 -72 -84 -72h-119q-30 0 -47.5 13.5t-17.5 37.5zM371 1784v35q0 32 16.5 58.5t56.5 64.5q56 53 127 53q37 0 82 -23t79.5 -50t72 -50t61.5 -23q70 0 135 72q27 37 50 37q24 0 24 -47v-31q0 -34 -17 -61t-57 -64 q-70 -59 -135 -59q-36 0 -80 23t-78.5 50.5t-73 50.5t-63.5 23q-72 0 -127 -69q-30 -35 -49 -35q-24 0 -24 45zM465 582h508q-2 6 -5 20.5t-5 20.5q-134 486 -240 704q-104 -213 -246 -704q-10 -35 -12 -41z" />
<glyph unicode="&#xc4;" horiz-adv-x="1445" d="M66 51q0 13 2 21q15 61 29.5 118.5t25 96.5t27 96t23.5 82.5t27.5 94.5t28.5 95q67 229 172 504t158 377h334q53 -102 158 -377t172 -504q8 -28 28 -95t28 -93.5t24 -83t26 -95.5t24.5 -96.5t28.5 -119.5q2 -8 2 -21q0 -24 -17.5 -37.5t-47.5 -13.5h-133q-66 0 -82 72 q-26 114 -72 288h-629q-14 -54 -37.5 -154t-31.5 -134q-19 -72 -84 -72h-119q-30 0 -47.5 13.5t-17.5 37.5zM330 1733v82q0 34 19 53.5t54 19.5h107q34 0 54 -19.5t20 -53.5v-82q0 -35 -20 -55.5t-54 -20.5h-107q-35 0 -54 20t-19 56zM465 582h508q-2 6 -5 20.5t-5 20.5 q-134 486 -240 704q-104 -213 -246 -704q-10 -35 -12 -41zM860 1733v82q0 34 19 53.5t55 19.5h106q34 0 54 -19.5t20 -53.5v-82q0 -35 -20 -55.5t-54 -20.5h-106q-36 0 -55 20t-19 56z" />
<glyph unicode="&#xc5;" horiz-adv-x="1445" d="M66 51q0 13 2 21q15 61 29.5 118.5t25 96.5t27 96t23.5 82.5t27.5 94.5t28.5 95q67 229 172 504t158 377h334q53 -102 158 -377t172 -504q8 -28 28 -95t28 -93.5t24 -83t26 -95.5t24.5 -96.5t28.5 -119.5q2 -8 2 -21q0 -24 -17.5 -37.5t-47.5 -13.5h-133q-66 0 -82 72 q-26 114 -72 288h-629q-14 -54 -37.5 -154t-31.5 -134q-19 -72 -84 -72h-119q-30 0 -47.5 13.5t-17.5 37.5zM465 582h508q-2 6 -5 20.5t-5 20.5q-134 486 -240 704q-104 -213 -246 -704q-10 -35 -12 -41zM469 1905q0 92 68 149t186 57t185 -56t67 -150t-67 -151.5 t-185 -57.5q-119 0 -186.5 56t-67.5 153zM588 1905q0 -54 34 -91.5t101 -37.5t101 37.5t34 91.5q0 53 -34 90t-101 37t-101 -37t-34 -90z" />
<glyph unicode="&#xc6;" horiz-adv-x="1914" d="M68 51q0 13 2 21q52 216 161 583q67 230 171.5 505.5t156.5 375.5h1139q35 0 54.5 -20t19.5 -54v-73q0 -37 -19.5 -56.5t-54.5 -19.5h-584v-402h520q34 0 54 -20t20 -55v-74q0 -35 -20 -54.5t-54 -19.5h-520v-256q0 -110 45 -159.5t144 -49.5h409q34 0 54 -19t20 -54v-74 q0 -35 -20 -55.5t-54 -20.5h-459q-184 0 -284.5 90.5t-114.5 269.5h-448q-60 -235 -72 -288q-19 -72 -84 -72h-119q-63 0 -63 51zM469 584h383v735h-131q-108 -227 -252 -735z" />
<glyph unicode="&#xc7;" horiz-adv-x="1339" d="M98 678v180q0 221 94.5 378.5t262 236.5t393.5 79q104 0 212 -20t177 -47v-314q0 -35 -20.5 -54t-57.5 -19h-90q-34 0 -54 19t-20 54v138q-64 20 -180 20q-207 0 -326.5 -116t-119.5 -349v-186q0 -222 113 -346.5t317 -124.5h96q118 0 264 43q10 4 31 4q47 0 47 -53v-80 q0 -38 -14.5 -58.5t-48.5 -27.5q-175 -51 -279 -51h-96q-340 0 -520.5 185.5t-180.5 508.5zM551 -313q0 53 57 53h135q111 0 111 70q0 64 -102 118v25h133q54 -25 91.5 -73t37.5 -95q0 -86 -64 -128t-162 -42h-180q-57 0 -57 53v19z" />
<glyph unicode="&#xc8;" horiz-adv-x="1239" d="M178 416v1046q0 34 20 54t54 20h772q34 0 54 -20t20 -54v-73q0 -36 -20 -55t-54 -19h-584v-408h521q34 0 53.5 -18t19.5 -53v-76q0 -34 -19.5 -54t-53.5 -20h-521v-254q0 -110 46 -160.5t143 -50.5h409q34 0 54 -19t20 -55v-73q0 -34 -20 -54t-54 -20h-458 q-199 0 -300.5 105t-101.5 311zM365 1987q0 28 51 28h155q32 0 55.5 -17t49.5 -56l121 -173q14 -20 14 -34q0 -18 -16 -28.5t-41 -10.5h-52q-12 0 -23 3t-17.5 5.5t-19.5 12t-17.5 13t-22 19t-22.5 20.5l-187 173q-28 25 -28 45z" />
<glyph unicode="&#xc9;" horiz-adv-x="1239" d="M178 416v1046q0 34 20 54t54 20h772q34 0 54 -20t20 -54v-73q0 -36 -20 -55t-54 -19h-584v-408h521q34 0 53.5 -18t19.5 -53v-76q0 -34 -19.5 -54t-53.5 -20h-521v-254q0 -110 46 -160.5t143 -50.5h409q34 0 54 -19t20 -55v-73q0 -34 -20 -54t-54 -20h-458 q-199 0 -300.5 105t-101.5 311zM444 1735q0 13 15 34l119 173q28 39 51 56t55 17h154q53 0 53 -28q0 -19 -29 -45l-188 -173q-4 -4 -17 -16t-16.5 -15t-14 -11.5t-14.5 -11t-12.5 -8t-15 -7t-14.5 -3t-17 -1.5h-53q-24 0 -40 10.5t-16 28.5z" />
<glyph unicode="&#xca;" horiz-adv-x="1239" d="M178 416v1046q0 34 20 54t54 20h772q34 0 54 -20t20 -54v-73q0 -36 -20 -55t-54 -19h-584v-408h521q34 0 53.5 -18t19.5 -53v-76q0 -34 -19.5 -54t-53.5 -20h-521v-254q0 -110 46 -160.5t143 -50.5h409q34 0 54 -19t20 -55v-73q0 -34 -20 -54t-54 -20h-458 q-199 0 -300.5 105t-101.5 311zM258 1729q0 14 23 40l168 191q24 28 37 40.5t33 23t42 10.5h152q31 0 54.5 -17t57.5 -57l166 -191q21 -24 21 -38q0 -35 -54 -35h-55q-21 0 -41.5 10t-36 23t-43.5 40l-147 142l-148 -142q-30 -29 -43.5 -40.5t-34.5 -22t-42 -10.5h-56 q-23 0 -38 9t-15 24z" />
<glyph unicode="&#xcb;" horiz-adv-x="1239" d="M178 416v1046q0 34 20 54t54 20h772q34 0 54 -20t20 -54v-73q0 -36 -20 -55t-54 -19h-584v-408h521q34 0 53.5 -18t19.5 -53v-76q0 -34 -19.5 -54t-53.5 -20h-521v-254q0 -110 46 -160.5t143 -50.5h409q34 0 54 -19t20 -55v-73q0 -34 -20 -54t-54 -20h-458 q-199 0 -300.5 105t-101.5 311zM236 1733v82q0 34 19 53.5t54 19.5h107q34 0 53.5 -19.5t19.5 -53.5v-82q0 -35 -19.5 -55.5t-53.5 -20.5h-107q-35 0 -54 20t-19 56zM766 1733v82q0 34 19 53.5t55 19.5h106q34 0 54 -19.5t20 -53.5v-82q0 -35 -20 -55.5t-54 -20.5h-106 q-36 0 -55 20t-19 56z" />
<glyph unicode="&#xcc;" horiz-adv-x="618" d="M53 1987q0 28 51 28h156q32 0 55.5 -17t49.5 -56l120 -173q15 -21 15 -34q0 -18 -16 -28.5t-42 -10.5h-51q-10 0 -18.5 1.5t-18 6t-15 7t-17 11.5t-15.5 12.5t-19 16.5t-20 18l-186 173q-29 26 -29 45zM178 74v1388q0 34 20 54t54 20h115q34 0 53.5 -20t19.5 -54v-1388 q0 -34 -19.5 -54t-53.5 -20h-115q-34 0 -54 20t-20 54z" />
<glyph unicode="&#xcd;" horiz-adv-x="618" d="M119 1735q0 14 14 34l119 173q28 39 51 56t55 17h154q53 0 53 -28q0 -20 -28 -45l-189 -173q-4 -4 -17 -16t-16.5 -15t-14 -11.5t-14.5 -11t-12.5 -8t-15 -7t-14.5 -3t-17 -1.5h-53q-24 0 -39.5 10.5t-15.5 28.5zM178 74v1388q0 34 20 54t54 20h115q34 0 53.5 -20 t19.5 -54v-1388q0 -34 -19.5 -54t-53.5 -20h-115q-34 0 -54 20t-20 54z" />
<glyph unicode="&#xce;" horiz-adv-x="618" d="M-68 1729q0 14 23 40l168 191q35 40 58 57t55 17h151q31 0 55 -17.5t58 -56.5l166 -191q20 -23 20 -38q0 -35 -53 -35h-55q-21 0 -41.5 10t-36 23t-43.5 40l-148 142l-147 -142q-30 -28 -44 -40t-35 -22.5t-42 -10.5h-55q-24 0 -39 9t-15 24zM178 74v1388q0 34 20 54 t54 20h115q34 0 53.5 -20t19.5 -54v-1388q0 -34 -19.5 -54t-53.5 -20h-115q-34 0 -54 20t-20 54z" />
<glyph unicode="&#xcf;" horiz-adv-x="618" d="M-82 1733v82q0 34 19.5 53.5t54.5 19.5h106q34 0 54 -19.5t20 -53.5v-82q0 -35 -20 -55.5t-54 -20.5h-106q-35 0 -54.5 20.5t-19.5 55.5zM178 74v1388q0 34 20 54t54 20h115q34 0 53.5 -20t19.5 -54v-1388q0 -34 -19.5 -54t-53.5 -20h-115q-34 0 -54 20t-20 54zM449 1733 v82q0 73 73 73h107q34 0 53.5 -19.5t19.5 -53.5v-82q0 -35 -19.5 -55.5t-53.5 -20.5h-107q-73 0 -73 76z" />
<glyph unicode="&#xd0;" horiz-adv-x="1497" d="M63 770v53q0 36 20 55t54 19h41v565q0 34 20 54t54 20h434q352 0 529.5 -167t177.5 -478v-213q0 -153 -40 -275t-121.5 -213t-215 -140.5t-311.5 -49.5h-453q-34 0 -54 20t-20 54v622h-41q-34 0 -54 20t-20 54zM440 221h265q417 0 417 471v187q0 436 -436 436h-246v-418 h160q34 0 54 -19t20 -55v-53q0 -34 -20 -54t-54 -20h-160v-475z" />
<glyph unicode="&#xd1;" horiz-adv-x="1550" d="M176 72v1390q0 34 20.5 54t55.5 20h86q31 0 48 -10t34 -33l688 -1004v973q0 34 20.5 54t55.5 20h112q35 0 55.5 -20t20.5 -54v-1390q0 -34 -20.5 -53t-55.5 -19h-86q-32 0 -50 10t-32 33l-688 1008v-979q0 -34 -20 -53t-55 -19h-113q-35 0 -55.5 19t-20.5 53zM422 1784 v35q0 32 17 58.5t57 64.5q56 53 127 53q37 0 82 -23t79.5 -50t72 -50t61.5 -23q70 0 135 72q27 37 49 37q24 0 24 -47v-31q0 -34 -16.5 -61t-56.5 -64q-70 -59 -135 -59q-36 0 -80 23t-78.5 50.5t-73 50.5t-63.5 23q-72 0 -127 -69q-30 -35 -50 -35q-24 0 -24 45z" />
<glyph unicode="&#xd2;" horiz-adv-x="1531" d="M98 721v100q0 348 171 539.5t497 191.5q328 0 498 -188.5t170 -542.5v-100q0 -349 -171 -543t-497 -194q-327 0 -497.5 191t-170.5 546zM369 721q0 -259 94.5 -386.5t302.5 -127.5t302.5 127.5t94.5 386.5v100q0 257 -94.5 382.5t-302.5 125.5t-302.5 -125.5 t-94.5 -382.5v-100zM510 1987q0 28 51 28h156q32 0 55 -17t49 -56l121 -173q14 -20 14 -34q0 -18 -16 -28.5t-41 -10.5h-51q-10 0 -18.5 1.5t-18 6t-15 7t-17 11.5t-15.5 12.5t-19 16.5t-20 18l-186 173q-29 26 -29 45z" />
<glyph unicode="&#xd3;" horiz-adv-x="1531" d="M98 721v100q0 348 171 539.5t497 191.5q328 0 498 -188.5t170 -542.5v-100q0 -349 -171 -543t-497 -194q-327 0 -497.5 191t-170.5 546zM369 721q0 -259 94.5 -386.5t302.5 -127.5t302.5 127.5t94.5 386.5v100q0 257 -94.5 382.5t-302.5 125.5t-302.5 -125.5 t-94.5 -382.5v-100zM573 1735q0 13 15 34l119 173q28 39 51 56t55 17h154q53 0 53 -28q0 -19 -29 -45l-188 -173q-4 -4 -17 -16t-16.5 -15t-14 -11.5t-14.5 -11t-12.5 -8t-15 -7t-14.5 -3t-17 -1.5h-53q-24 0 -40 10.5t-16 28.5z" />
<glyph unicode="&#xd4;" horiz-adv-x="1531" d="M98 721v100q0 348 171 539.5t497 191.5q328 0 498 -188.5t170 -542.5v-100q0 -349 -171 -543t-497 -194q-327 0 -497.5 191t-170.5 546zM369 721q0 -259 94.5 -386.5t302.5 -127.5t302.5 127.5t94.5 386.5v100q0 257 -94.5 382.5t-302.5 125.5t-302.5 -125.5 t-94.5 -382.5v-100zM387 1729q0 14 23 40l168 191q24 28 37 40.5t33 23t42 10.5h152q31 0 54.5 -17t57.5 -57l166 -191q21 -24 21 -38q0 -35 -54 -35h-55q-21 0 -41.5 10t-36 23t-43.5 40l-147 142l-148 -142q-30 -29 -43.5 -40.5t-34.5 -22t-42 -10.5h-56q-23 0 -38 9 t-15 24z" />
<glyph unicode="&#xd5;" horiz-adv-x="1531" d="M98 721v100q0 348 171 539.5t497 191.5q328 0 498 -188.5t170 -542.5v-100q0 -349 -171 -543t-497 -194q-327 0 -497.5 191t-170.5 546zM369 721q0 -259 94.5 -386.5t302.5 -127.5t302.5 127.5t94.5 386.5v100q0 257 -94.5 382.5t-302.5 125.5t-302.5 -125.5 t-94.5 -382.5v-100zM414 1784v35q0 32 16.5 58.5t56.5 64.5q56 53 127 53q37 0 82 -23t79.5 -50t72 -50t61.5 -23q70 0 135 72q27 37 50 37q24 0 24 -47v-31q0 -34 -17 -61t-57 -64q-70 -59 -135 -59q-36 0 -80 23t-78.5 50.5t-73 50.5t-63.5 23q-72 0 -127 -69 q-30 -35 -49 -35q-24 0 -24 45z" />
<glyph unicode="&#xd6;" horiz-adv-x="1531" d="M98 721v100q0 348 171 539.5t497 191.5q328 0 498 -188.5t170 -542.5v-100q0 -349 -171 -543t-497 -194q-327 0 -497.5 191t-170.5 546zM369 721q0 -259 94.5 -386.5t302.5 -127.5t302.5 127.5t94.5 386.5v100q0 257 -94.5 382.5t-302.5 125.5t-302.5 -125.5 t-94.5 -382.5v-100zM375 1733v82q0 34 19.5 53.5t54.5 19.5h106q34 0 54 -19.5t20 -53.5v-82q0 -35 -20 -55.5t-54 -20.5h-106q-35 0 -54.5 20.5t-19.5 55.5zM905 1733v82q0 34 19 53.5t55 19.5h106q34 0 54 -19.5t20 -53.5v-82q0 -35 -20 -55.5t-54 -20.5h-106 q-36 0 -55 20t-19 56z" />
<glyph unicode="&#xd7;" d="M274 510q0 26 25 51l188 191l-188 190q-25 25 -25 51t25 54l47 45q26 26 53 26t56 -26l184 -189l186 189q26 26 56 26q24 0 53 -26l47 -45q25 -32 25 -54t-25 -51l-190 -190l190 -191q25 -29 25 -51q0 -26 -25 -51l-47 -47q-27 -27 -53 -27q-32 0 -56 27l-186 186 l-184 -186q-27 -27 -56 -27t-53 27l-47 47q-25 22 -25 51z" />
<glyph unicode="&#xd8;" horiz-adv-x="1531" d="M98 721v100q0 348 171 539.5t497 191.5q266 0 436 -135l43 56q26 32 47.5 47.5t48.5 15.5h27q22 0 34.5 -9t12.5 -24q0 -12 -12 -30l-113 -142q144 -184 144 -510v-100q0 -349 -171 -543t-497 -194q-269 0 -436 135l-41 -56q-26 -32 -47.5 -47.5t-48.5 -15.5h-29 q-22 0 -34.5 9t-12.5 24q0 12 12 30l113 144q-144 185 -144 514zM369 721q0 -192 47 -303l631 811q-97 100 -281 100q-208 0 -302.5 -125.5t-94.5 -382.5v-100zM485 307q97 -100 281 -100q208 0 302.5 127.5t94.5 386.5v100q0 189 -47 297z" />
<glyph unicode="&#xd9;" horiz-adv-x="1513" d="M168 541v921q0 34 20.5 54t55.5 20h112q35 0 55.5 -20t20.5 -54v-923q0 -332 326 -332q323 0 323 332v923q0 34 20.5 54t55.5 20h113q36 0 56 -20t20 -54v-921q0 -136 -43.5 -242.5t-122.5 -175t-186 -104t-236 -35.5q-279 0 -434.5 142.5t-155.5 414.5zM502 1987 q0 28 51 28h156q32 0 55 -17t49 -56l121 -173q14 -20 14 -34q0 -18 -16 -28.5t-41 -10.5h-51q-10 0 -18.5 1.5t-18 6t-15 7t-17 11.5t-15.5 12.5t-19 16.5t-20 18l-187 173q-28 25 -28 45z" />
<glyph unicode="&#xda;" horiz-adv-x="1513" d="M168 541v921q0 34 20.5 54t55.5 20h112q35 0 55.5 -20t20.5 -54v-923q0 -332 326 -332q323 0 323 332v923q0 34 20.5 54t55.5 20h113q36 0 56 -20t20 -54v-921q0 -136 -43.5 -242.5t-122.5 -175t-186 -104t-236 -35.5q-279 0 -434.5 142.5t-155.5 414.5zM565 1735 q0 13 15 34l118 173q28 39 51.5 56t55.5 17h153q54 0 54 -28q0 -19 -29 -45l-188 -173q-4 -4 -17 -16t-16.5 -15t-14 -11.5t-14.5 -11t-12.5 -8t-15 -7t-14.5 -3t-17 -1.5h-53q-24 0 -40 10.5t-16 28.5z" />
<glyph unicode="&#xdb;" horiz-adv-x="1513" d="M168 541v921q0 34 20.5 54t55.5 20h112q35 0 55.5 -20t20.5 -54v-923q0 -332 326 -332q323 0 323 332v923q0 34 20.5 54t55.5 20h113q36 0 56 -20t20 -54v-921q0 -136 -43.5 -242.5t-122.5 -175t-186 -104t-236 -35.5q-279 0 -434.5 142.5t-155.5 414.5zM381 1729 q0 15 22 40l168 191q35 40 58 57t55 17h152q31 0 54.5 -17t57.5 -57l166 -191q21 -24 21 -38q0 -35 -54 -35h-55q-21 0 -41.5 10t-36 23t-43.5 40l-147 142l-148 -142q-30 -28 -44 -40t-35 -22.5t-42 -10.5h-55q-23 0 -38 9t-15 24z" />
<glyph unicode="&#xdc;" horiz-adv-x="1513" d="M168 541v921q0 34 20.5 54t55.5 20h112q35 0 55.5 -20t20.5 -54v-923q0 -332 326 -332q323 0 323 332v923q0 34 20.5 54t55.5 20h113q36 0 56 -20t20 -54v-921q0 -136 -43.5 -242.5t-122.5 -175t-186 -104t-236 -35.5q-279 0 -434.5 142.5t-155.5 414.5zM365 1733v82 q0 34 19 53.5t54 19.5h107q34 0 53.5 -19.5t19.5 -53.5v-82q0 -35 -19.5 -55.5t-53.5 -20.5h-107q-35 0 -54 20t-19 56zM895 1733v82q0 34 19 53.5t55 19.5h106q34 0 54 -19.5t20 -53.5v-82q0 -35 -20 -55.5t-54 -20.5h-106q-36 0 -55 20t-19 56z" />
<glyph unicode="&#xdd;" horiz-adv-x="1320" d="M57 1493q0 20 16.5 31.5t43.5 11.5h135q33 0 54 -18t42 -56l322 -631l329 631q41 74 97 74h116q26 0 42 -10.5t16 -30.5q0 -13 -10 -33l-469 -850v-538q0 -34 -20 -54t-54 -20h-115q-35 0 -54.5 20t-19.5 54v530l-460 858q-11 22 -11 31zM475 1735q0 14 14 34l119 173 q28 39 51.5 56t55.5 17h153q54 0 54 -28q0 -19 -29 -45l-188 -173q-4 -4 -17 -16t-16.5 -15t-14 -11.5t-14.5 -11t-12.5 -8t-15 -7t-14.5 -3t-17 -1.5h-54q-24 0 -39.5 10.5t-15.5 28.5z" />
<glyph unicode="&#xde;" horiz-adv-x="1304" d="M178 74v1388q0 34 20 54t54 20h115q34 0 53.5 -20t19.5 -54v-143h262q253 0 384 -126.5t131 -381.5q0 -264 -145 -403.5t-402 -139.5h-230v-194q0 -34 -19.5 -54t-53.5 -20h-115q-34 0 -54 20t-20 54zM440 492h215q165 0 228 77t63 242q0 158 -61.5 221.5t-220.5 63.5 h-224v-604z" />
<glyph unicode="&#xdf;" horiz-adv-x="1474" d="M43 981v66q0 34 20 53.5t56 19.5h98v31q0 81 28 147t76 109.5t115 73t141.5 42.5t157.5 13q59 0 117 -8t118.5 -28.5t106 -51.5t74.5 -81.5t29 -113.5q0 -46 -11 -84t-34 -69t-42 -50t-51 -47q-9 -8 -14 -12q-1 -1 -26 -21t-32 -28t-23.5 -27t-22.5 -38t-6 -41 q0 -49 27 -77t81 -54l84 -41q39 -19 61 -30t53.5 -30t48.5 -34.5t37.5 -40t31 -50.5t17.5 -61.5t7 -77.5q0 -167 -115.5 -261.5t-316.5 -94.5q-141 0 -236 18q-36 7 -50.5 24.5t-14.5 51.5v90q0 53 47 53q12 0 18 -2q100 -20 199 -20q95 0 152 33.5t57 105.5 q0 51 -32.5 78.5t-106.5 58.5l-101 45q-209 88 -209 287q0 124 170 254q55 41 77 78t22 80q0 118 -195 118q-44 0 -76.5 -3.5t-69.5 -17.5t-60 -38.5t-38.5 -69t-15.5 -106.5v-1028q0 -34 -19.5 -54t-54.5 -20h-102q-36 0 -57 20t-21 54v833h-98q-36 0 -56 20t-20 54z" />
<glyph unicode="&#xe0;" horiz-adv-x="1282" d="M115 362v193q0 169 82 299.5t215.5 198t294.5 67.5h321q34 0 54 -19.5t20 -53.5v-973q0 -34 -20 -54t-54 -20h-106q-34 0 -54 20t-20 54v112l-80 -69q-73 -65 -147.5 -99t-167.5 -34q-156 0 -247 96t-91 282zM369 387q0 -100 39.5 -142t113.5 -42q105 0 262 137l64 53 v514h-127q-162 0 -257 -92.5t-95 -259.5v-168zM426 1571q0 28 51 28h156q32 0 55 -17t49 -56l121 -172q14 -20 14 -35q0 -18 -16 -28.5t-41 -10.5h-51q-12 0 -23 3t-18 5.5t-20 12t-17.5 13.5t-22 19.5t-22.5 20.5l-186 172q-29 26 -29 45z" />
<glyph unicode="&#xe1;" horiz-adv-x="1282" d="M115 362v193q0 169 82 299.5t215.5 198t294.5 67.5h321q34 0 54 -19.5t20 -53.5v-973q0 -34 -20 -54t-54 -20h-106q-34 0 -54 20t-20 54v112l-80 -69q-73 -65 -147.5 -99t-167.5 -34q-156 0 -247 96t-91 282zM369 387q0 -100 39.5 -142t113.5 -42q105 0 262 137l64 53 v514h-127q-162 0 -257 -92.5t-95 -259.5v-168zM514 1319q0 15 14 35l119 172q28 39 51.5 56t55.5 17h153q54 0 54 -28q0 -19 -29 -45l-189 -172q-6 -6 -19 -18t-18 -16.5t-15.5 -13t-16.5 -12t-15 -7.5t-17.5 -5.5t-18.5 -1.5h-54q-24 0 -39.5 10.5t-15.5 28.5z" />
<glyph unicode="&#xe2;" horiz-adv-x="1282" d="M115 362v193q0 169 82 299.5t215.5 198t294.5 67.5h321q34 0 54 -19.5t20 -53.5v-973q0 -34 -20 -54t-54 -20h-106q-34 0 -54 20t-20 54v112l-80 -69q-73 -65 -147.5 -99t-167.5 -34q-156 0 -247 96t-91 282zM289 1313q0 16 22 41l168 190q35 40 58 57t55 17h151 q31 0 55 -17.5t58 -56.5l166 -190q20 -23 20 -39q0 -35 -53 -35h-55q-20 0 -41 10.5t-36 23t-44 40.5l-147 141l-148 -141q-31 -29 -44 -40.5t-34.5 -22.5t-42.5 -11h-55q-23 0 -38 9t-15 24zM369 387q0 -100 39.5 -142t113.5 -42q105 0 262 137l64 53v514h-127 q-162 0 -257 -92.5t-95 -259.5v-168z" />
<glyph unicode="&#xe3;" horiz-adv-x="1282" d="M115 362v193q0 169 82 299.5t215.5 198t294.5 67.5h321q34 0 54 -19.5t20 -53.5v-973q0 -34 -20 -54t-54 -20h-106q-34 0 -54 20t-20 54v112l-80 -69q-73 -65 -147.5 -99t-167.5 -34q-156 0 -247 96t-91 282zM303 1368v35q0 32 17 58.5t57 64.5q56 53 127 53 q37 0 82 -22.5t79.5 -50t72 -50t61.5 -22.5q71 0 135 71q27 37 49 37q25 0 25 -47v-31q0 -34 -17 -61t-57 -64q-70 -59 -135 -59q-36 0 -80 23t-78.5 50.5t-73 50.5t-63.5 23q-72 0 -127 -69q-30 -35 -49 -35q-25 0 -25 45zM369 387q0 -100 39.5 -142t113.5 -42 q105 0 262 137l64 53v514h-127q-162 0 -257 -92.5t-95 -259.5v-168z" />
<glyph unicode="&#xe4;" horiz-adv-x="1282" d="M115 362v193q0 169 82 299.5t215.5 198t294.5 67.5h321q34 0 54 -19.5t20 -53.5v-973q0 -34 -20 -54t-54 -20h-106q-34 0 -54 20t-20 54v112l-80 -69q-73 -65 -147.5 -99t-167.5 -34q-156 0 -247 96t-91 282zM272 1317v82q0 34 19.5 54t54.5 20h107q34 0 53.5 -20 t19.5 -54v-82q0 -35 -19.5 -55.5t-53.5 -20.5h-107q-35 0 -54.5 20.5t-19.5 55.5zM369 387q0 -100 39.5 -142t113.5 -42q105 0 262 137l64 53v514h-127q-162 0 -257 -92.5t-95 -259.5v-168zM803 1317v82q0 34 19 54t55 20h106q34 0 54 -20t20 -54v-82q0 -35 -20 -55.5 t-54 -20.5h-106q-36 0 -55 20t-19 56z" />
<glyph unicode="&#xe5;" horiz-adv-x="1282" d="M115 362v193q0 169 82 299.5t215.5 198t294.5 67.5h321q34 0 54 -19.5t20 -53.5v-973q0 -34 -20 -54t-54 -20h-106q-34 0 -54 20t-20 54v112l-80 -69q-73 -65 -147.5 -99t-167.5 -34q-156 0 -247 96t-91 282zM369 387q0 -100 39.5 -142t113.5 -42q105 0 262 137l64 53 v514h-127q-162 0 -257 -92.5t-95 -259.5v-168zM412 1489q0 92 68 149.5t186 57.5t185 -56.5t67 -150.5t-67 -151.5t-185 -57.5q-119 0 -186.5 56t-67.5 153zM530 1489q0 -54 34 -91.5t102 -37.5q67 0 101 37.5t34 91.5q0 53 -34 90t-101 37t-101.5 -37.5t-34.5 -89.5z" />
<glyph unicode="&#xe6;" horiz-adv-x="1914" d="M115 362v193q0 169 82 299.5t215.5 198t294.5 67.5h663q96 0 173 -18.5t137.5 -58t93 -106.5t32.5 -157q0 -159 -101.5 -240t-279.5 -81h-321v-27q0 -121 75.5 -175t200.5 -54q140 0 275 41q16 4 20 4q24 0 39 -18t15 -46v-67q0 -66 -74 -88q-151 -45 -289 -45 q-363 0 -473 235l-119 -104q-148 -131 -321 -131q-156 0 -247 96t-91 282zM369 387q0 -100 39.5 -142t113.5 -42q107 0 262 135l66 55v246q0 146 86 268h-215q-162 0 -257 -92.5t-95 -259.5v-168zM1104 629h285q95 0 136.5 35t41.5 108q0 78 -50.5 106.5t-146.5 28.5 q-266 0 -266 -264v-14z" />
<glyph unicode="&#xe7;" horiz-adv-x="1073" d="M100 444v211q0 112 42 204.5t113 152.5t162 92.5t191 32.5q97 0 189.5 -22t158.5 -58v-252q0 -36 -19.5 -56t-53.5 -20h-70q-34 0 -54 20t-20 56v88q-48 25 -131 25q-112 0 -183 -68t-71 -201v-174q0 -134 70 -203t199 -69q111 0 249 41q15 6 27 6q49 0 49 -55v-76 q0 -36 -14 -56t-47 -30q-144 -49 -269 -49q-238 0 -378 115t-140 345zM330 -313q0 53 57 53h135q111 0 111 70q0 63 -103 118v25h134q54 -25 91.5 -73t37.5 -95q0 -86 -64 -128t-162 -42h-180q-57 0 -57 53v19z" />
<glyph unicode="&#xe8;" horiz-adv-x="1165" d="M102 436v219q0 114 40 206t110 152t165 92t206 32q96 0 173 -18.5t137.5 -58t93 -106.5t32.5 -157q0 -159 -102 -241.5t-279 -82.5h-322v-41q0 -121 75.5 -175t201.5 -54q137 0 272 41q16 4 23 4q24 0 38.5 -18t14.5 -46v-67q0 -66 -76 -88q-151 -45 -287 -45 q-115 0 -207 25.5t-162.5 78.5t-108.5 141t-38 207zM336 1571q0 28 51 28h156q32 0 55 -17t49 -56l121 -172q14 -20 14 -35q0 -18 -16 -28.5t-41 -10.5h-51q-12 0 -23 3t-18 5.5t-20 12t-17.5 13.5t-22 19.5t-22.5 20.5l-186 172q-29 26 -29 45zM356 643h283q96 0 137 35.5 t41 109.5q0 76 -50 106t-144 30q-267 0 -267 -265v-16z" />
<glyph unicode="&#xe9;" horiz-adv-x="1165" d="M102 436v219q0 114 40 206t110 152t165 92t206 32q96 0 173 -18.5t137.5 -58t93 -106.5t32.5 -157q0 -159 -102 -241.5t-279 -82.5h-322v-41q0 -121 75.5 -175t201.5 -54q137 0 272 41q16 4 23 4q24 0 38.5 -18t14.5 -46v-67q0 -66 -76 -88q-151 -45 -287 -45 q-115 0 -207 25.5t-162.5 78.5t-108.5 141t-38 207zM356 643h283q96 0 137 35.5t41 109.5q0 76 -50 106t-144 30q-267 0 -267 -265v-16zM408 1319q0 15 14 35l119 172q28 39 51 56t55 17h154q53 0 53 -28q0 -19 -29 -45l-188 -172q-5 -5 -17 -16t-16.5 -15t-14 -12t-14 -11 t-13 -8t-15 -7t-14.5 -3.5t-17 -1.5h-53q-24 0 -39.5 10.5t-15.5 28.5z" />
<glyph unicode="&#xea;" horiz-adv-x="1165" d="M102 436v219q0 114 40 206t110 152t165 92t206 32q96 0 173 -18.5t137.5 -58t93 -106.5t32.5 -157q0 -159 -102 -241.5t-279 -82.5h-322v-41q0 -121 75.5 -175t201.5 -54q137 0 272 41q16 4 23 4q24 0 38.5 -18t14.5 -46v-67q0 -66 -76 -88q-151 -45 -287 -45 q-115 0 -207 25.5t-162.5 78.5t-108.5 141t-38 207zM213 1313q0 15 23 41l167 190q35 40 58 57t55 17h152q31 0 54.5 -17t57.5 -57l166 -190q21 -24 21 -39q0 -35 -54 -35h-55q-20 0 -41 10.5t-36 23t-44 40.5l-147 141l-148 -141q-32 -30 -44 -41t-33.5 -22t-42.5 -11h-56 q-23 0 -38 9t-15 24zM356 643h283q96 0 137 35.5t41 109.5q0 76 -50 106t-144 30q-267 0 -267 -265v-16z" />
<glyph unicode="&#xeb;" horiz-adv-x="1165" d="M102 436v219q0 114 40 206t110 152t165 92t206 32q96 0 173 -18.5t137.5 -58t93 -106.5t32.5 -157q0 -159 -102 -241.5t-279 -82.5h-322v-41q0 -121 75.5 -175t201.5 -54q137 0 272 41q16 4 23 4q24 0 38.5 -18t14.5 -46v-67q0 -66 -76 -88q-151 -45 -287 -45 q-115 0 -207 25.5t-162.5 78.5t-108.5 141t-38 207zM199 1317v82q0 34 19 54t54 20h107q34 0 54 -20t20 -54v-82q0 -35 -20 -55.5t-54 -20.5h-107q-35 0 -54 20t-19 56zM356 643h283q96 0 137 35.5t41 109.5q0 76 -50 106t-144 30q-267 0 -267 -265v-16zM729 1317v82 q0 34 19 54t55 20h106q34 0 54 -20t20 -54v-82q0 -35 -20 -55.5t-54 -20.5h-106q-36 0 -55 20t-19 56z" />
<glyph unicode="&#xec;" horiz-adv-x="641" d="M31 981v66q0 34 19.5 53.5t55.5 19.5h279q37 0 57.5 -19.5t20.5 -53.5v-973q0 -34 -21 -54t-57 -20h-102q-35 0 -54.5 20t-19.5 54v833h-103q-36 0 -55.5 20t-19.5 54zM57 1571q0 13 14.5 20.5t37.5 7.5h155q32 0 55.5 -17t49.5 -56l120 -172q15 -21 15 -35 q0 -18 -16 -28.5t-42 -10.5h-51q-12 0 -23 3t-18 5.5t-20 12t-17.5 13.5t-22 19.5t-22.5 20.5l-186 172q-29 26 -29 45z" />
<glyph unicode="&#xed;" horiz-adv-x="641" d="M31 981v66q0 34 19.5 53.5t55.5 19.5h279q37 0 57.5 -19.5t20.5 -53.5v-973q0 -34 -21 -54t-57 -20h-102q-35 0 -54.5 20t-19.5 54v833h-103q-36 0 -55.5 20t-19.5 54zM145 1319q0 14 15 35l119 172q28 39 51 56t55 17h154q53 0 53 -28q0 -19 -29 -45l-188 -172 q-5 -5 -17 -16t-16.5 -15t-14 -12t-14 -11t-13 -8t-15 -7t-14.5 -3.5t-17 -1.5h-53q-24 0 -40 10.5t-16 28.5z" />
<glyph unicode="&#xee;" horiz-adv-x="641" d="M-88 1313q0 16 22 41l168 190q35 40 58 57t55 17h152q31 0 54.5 -17t57.5 -57l166 -190q21 -24 21 -39q0 -35 -54 -35h-55q-20 0 -41 10.5t-36 23t-44 40.5l-147 141l-148 -141q-31 -29 -44 -40.5t-34.5 -22.5t-42.5 -11h-55q-23 0 -38 9t-15 24zM31 981v66 q0 34 19.5 53.5t55.5 19.5h279q37 0 57.5 -19.5t20.5 -53.5v-973q0 -34 -21 -54t-57 -20h-102q-35 0 -54.5 20t-19.5 54v833h-103q-36 0 -55.5 20t-19.5 54z" />
<glyph unicode="&#xef;" horiz-adv-x="641" d="M-94 1317v82q0 34 19.5 54t54.5 20h106q34 0 54 -20t20 -54v-82q0 -35 -20 -55.5t-54 -20.5h-106q-35 0 -54.5 20.5t-19.5 55.5zM31 981v66q0 34 19.5 53.5t55.5 19.5h279q37 0 57.5 -19.5t20.5 -53.5v-973q0 -34 -21 -54t-57 -20h-102q-35 0 -54.5 20t-19.5 54v833h-103 q-36 0 -55.5 20t-19.5 54zM436 1317v82q0 34 19 54t55 20h106q34 0 54 -20t20 -54v-82q0 -35 -20 -55.5t-54 -20.5h-106q-36 0 -55 20t-19 56z" />
<glyph unicode="&#xf0;" horiz-adv-x="1282" d="M115 362v193q0 169 82 299.5t215.5 198t294.5 67.5h141v119h-191q-34 0 -53.5 20.5t-19.5 55.5v35q0 35 19.5 54t53.5 19h191v39q0 34 20 54t54 20h106q34 0 54 -20t20 -54v-39h72q73 0 73 -73v-35q0 -36 -19 -56t-54 -20h-72v-1165q0 -34 -20 -54t-54 -20h-106 q-34 0 -54 20t-20 54v112l-80 -69q-77 -65 -150 -99t-165 -34q-156 0 -246.5 95.5t-91.5 282.5zM369 387q0 -100 39.5 -142t113.5 -42q105 0 262 137l64 53v514h-127q-162 0 -257 -92.5t-95 -259.5v-168z" />
<glyph unicode="&#xf1;" horiz-adv-x="1323" d="M176 74v973q0 34 20 53.5t54 19.5h104q35 0 55.5 -19.5t20.5 -53.5v-119l66 59q82 74 161 112t179 38q151 0 232 -91.5t81 -281.5v-690q0 -34 -21 -54t-57 -20h-102q-35 0 -54.5 20t-19.5 54v651q0 103 -36.5 148t-108.5 45q-22 0 -47.5 -8t-43 -15.5t-48 -29t-40 -28.5 t-43 -34.5t-34.5 -28.5l-64 -53v-647q0 -34 -20.5 -54t-55.5 -20h-104q-34 0 -54 20t-20 54zM309 1368v35q0 32 17 58.5t57 64.5q56 53 127 53q37 0 82 -22.5t79.5 -50t72 -50t61.5 -22.5q71 0 135 71q27 37 49 37q25 0 25 -47v-31q0 -34 -17 -61t-57 -64q-70 -59 -135 -59 q-36 0 -80 23t-78.5 50.5t-73 50.5t-63.5 23q-72 0 -127 -69q-30 -35 -49 -35q-25 0 -25 45z" />
<glyph unicode="&#xf2;" horiz-adv-x="1249" d="M96 569q0 274 134.5 421t392.5 147q266 0 397 -146t131 -422q0 -295 -131 -440t-397 -145t-396.5 145t-130.5 440zM350 569q0 -181 62.5 -273.5t210.5 -92.5q147 0 209.5 92.5t62.5 273.5q0 179 -61.5 264t-210.5 85t-211 -85.5t-62 -263.5zM385 1571q0 28 51 28h156 q32 0 55 -17t49 -56l121 -172q14 -20 14 -35q0 -18 -16 -28.5t-41 -10.5h-51q-12 0 -23 3t-18 5.5t-20 12t-17.5 13.5t-22 19.5t-22.5 20.5l-186 172q-29 26 -29 45z" />
<glyph unicode="&#xf3;" horiz-adv-x="1249" d="M96 569q0 274 134.5 421t392.5 147q266 0 397 -146t131 -422q0 -295 -131 -440t-397 -145t-396.5 145t-130.5 440zM350 569q0 -181 62.5 -273.5t210.5 -92.5q147 0 209.5 92.5t62.5 273.5q0 179 -61.5 264t-210.5 85t-211 -85.5t-62 -263.5zM434 1319q0 14 15 35l118 172 q28 39 51.5 56t55.5 17h153q54 0 54 -28q0 -19 -29 -45l-188 -172q-5 -5 -17 -16t-16.5 -15t-14 -12t-14 -11t-13 -8t-15 -7t-14.5 -3.5t-17 -1.5h-54q-24 0 -39.5 10.5t-15.5 28.5z" />
<glyph unicode="&#xf4;" horiz-adv-x="1249" d="M96 569q0 274 134.5 421t392.5 147q266 0 397 -146t131 -422q0 -295 -131 -440t-397 -145t-396.5 145t-130.5 440zM248 1313q0 16 22 41l168 190q35 40 58 57t55 17h151q31 0 55 -17.5t58 -56.5l166 -190q20 -23 20 -39q0 -35 -53 -35h-55q-20 0 -41 10.5t-36 23 t-44 40.5l-147 141l-148 -141q-31 -29 -44 -40.5t-34.5 -22.5t-42.5 -11h-55q-23 0 -38 9t-15 24zM350 569q0 -181 62.5 -273.5t210.5 -92.5q147 0 209.5 92.5t62.5 273.5q0 179 -61.5 264t-210.5 85t-211 -85.5t-62 -263.5z" />
<glyph unicode="&#xf5;" horiz-adv-x="1249" d="M96 569q0 274 134.5 421t392.5 147q266 0 397 -146t131 -422q0 -295 -131 -440t-397 -145t-396.5 145t-130.5 440zM272 1368v35q0 32 17 58.5t57 64.5q56 53 127 53q37 0 82 -22.5t79.5 -50t72 -50t61.5 -22.5q71 0 135 71q27 37 49 37q25 0 25 -47v-31q0 -34 -17 -61 t-57 -64q-70 -59 -135 -59q-36 0 -80 23t-78.5 50.5t-73 50.5t-63.5 23q-72 0 -127 -69q-30 -35 -49 -35q-25 0 -25 45zM350 569q0 -181 62.5 -273.5t210.5 -92.5q147 0 209.5 92.5t62.5 273.5q0 179 -61.5 264t-210.5 85t-211 -85.5t-62 -263.5z" />
<glyph unicode="&#xf6;" horiz-adv-x="1249" d="M96 569q0 274 134.5 421t392.5 147q266 0 397 -146t131 -422q0 -295 -131 -440t-397 -145t-396.5 145t-130.5 440zM231 1317v82q0 34 19.5 54t54.5 20h107q34 0 53.5 -20t19.5 -54v-82q0 -35 -19.5 -55.5t-53.5 -20.5h-107q-35 0 -54.5 20.5t-19.5 55.5zM350 569 q0 -181 62.5 -273.5t210.5 -92.5q147 0 209.5 92.5t62.5 273.5q0 179 -61.5 264t-210.5 85t-211 -85.5t-62 -263.5zM762 1317v82q0 34 19 54t55 20h106q34 0 54 -20t20 -54v-82q0 -35 -20 -55.5t-54 -20.5h-106q-36 0 -55 20t-19 56z" />
<glyph unicode="&#xf7;" d="M193 721v63q0 72 73 72h746q36 0 55.5 -19t19.5 -53v-63q0 -76 -75 -76h-746q-73 0 -73 76zM530 381v47q0 90 76 90h49q93 0 93 -74v-49q0 -90 -76 -90h-49q-93 0 -93 76zM530 1059v49q0 88 76 88h49q93 0 93 -74v-49q0 -90 -76 -90h-49q-93 0 -93 76z" />
<glyph unicode="&#xf8;" horiz-adv-x="1249" d="M96 569q0 274 134.5 421t392.5 147q200 0 327 -86l4 6q28 33 50 48t51 15h26q22 0 35.5 -9t13.5 -24q0 -16 -14 -30l-76 -92q111 -141 111 -396q0 -295 -131 -440t-397 -145q-207 0 -328 84l-4 -5q-29 -33 -51.5 -48t-49.5 -15h-26q-22 0 -34.5 9t-12.5 24q0 12 12 30 l76 93q-109 141 -109 413zM350 569q0 -121 27 -207l420 506q-62 50 -174 50q-149 0 -211 -85.5t-62 -263.5zM449 254q63 -51 174 -51q147 0 209.5 92.5t62.5 273.5q0 111 -25 191z" />
<glyph unicode="&#xf9;" horiz-adv-x="1323" d="M172 356v691q0 34 19.5 53.5t54.5 19.5h104q35 0 54.5 -19.5t19.5 -53.5v-654q0 -102 35.5 -146t107.5 -44q32 0 66.5 12t74.5 40.5t57.5 42t59.5 48.5l66 53v648q0 34 19 53.5t55 19.5h102q36 0 56 -19.5t20 -53.5v-973q0 -34 -20 -54t-56 -20h-102q-36 0 -55 20t-19 54 v119l-68 -62q-81 -73 -160.5 -110t-181.5 -37q-309 0 -309 372zM406 1571q0 28 51 28h155q32 0 55.5 -17t49.5 -56l121 -172q14 -20 14 -35q0 -18 -16 -28.5t-41 -10.5h-52q-12 0 -22.5 3t-18 6t-19.5 12t-17.5 13.5t-21.5 19t-23 20.5l-187 172q-28 25 -28 45z" />
<glyph unicode="&#xfa;" horiz-adv-x="1323" d="M172 356v691q0 34 19.5 53.5t54.5 19.5h104q35 0 54.5 -19.5t19.5 -53.5v-654q0 -102 35.5 -146t107.5 -44q32 0 66.5 12t74.5 40.5t57.5 42t59.5 48.5l66 53v648q0 34 19 53.5t55 19.5h102q36 0 56 -19.5t20 -53.5v-973q0 -34 -20 -54t-56 -20h-102q-36 0 -55 20t-19 54 v119l-68 -62q-81 -73 -160.5 -110t-181.5 -37q-309 0 -309 372zM469 1319q0 15 14 35l119 172q28 39 51.5 56t55.5 17h153q53 0 53 -28q0 -20 -28 -45l-189 -172q-6 -6 -19 -18t-18 -16.5t-15.5 -13t-16.5 -12t-15 -7.5t-17.5 -5.5t-18.5 -1.5h-54q-24 0 -39.5 10.5 t-15.5 28.5z" />
<glyph unicode="&#xfb;" horiz-adv-x="1323" d="M172 356v691q0 34 19.5 53.5t54.5 19.5h104q35 0 54.5 -19.5t19.5 -53.5v-654q0 -102 35.5 -146t107.5 -44q32 0 66.5 12t74.5 40.5t57.5 42t59.5 48.5l66 53v648q0 34 19 53.5t55 19.5h102q36 0 56 -19.5t20 -53.5v-973q0 -34 -20 -54t-56 -20h-102q-36 0 -55 20t-19 54 v119l-68 -62q-81 -73 -160.5 -110t-181.5 -37q-309 0 -309 372zM285 1313q0 16 22 41l168 190q35 40 58 57t55 17h151q31 0 55 -17.5t58 -56.5l166 -190q20 -23 20 -39q0 -35 -53 -35h-55q-20 0 -41 10.5t-36 23t-44 40.5l-147 141l-148 -141q-31 -29 -44 -40.5t-34.5 -22.5 t-42.5 -11h-55q-23 0 -38 9t-15 24z" />
<glyph unicode="&#xfc;" horiz-adv-x="1323" d="M172 356v691q0 34 19.5 53.5t54.5 19.5h104q35 0 54.5 -19.5t19.5 -53.5v-654q0 -102 35.5 -146t107.5 -44q32 0 66.5 12t74.5 40.5t57.5 42t59.5 48.5l66 53v648q0 34 19 53.5t55 19.5h102q36 0 56 -19.5t20 -53.5v-973q0 -34 -20 -54t-56 -20h-102q-36 0 -55 20t-19 54 v119l-68 -62q-81 -73 -160.5 -110t-181.5 -37q-309 0 -309 372zM270 1317v82q0 34 19.5 54t54.5 20h107q34 0 53.5 -20t19.5 -54v-82q0 -35 -19.5 -55.5t-53.5 -20.5h-107q-35 0 -54.5 20.5t-19.5 55.5zM801 1317v82q0 35 18.5 54.5t54.5 19.5h107q34 0 54 -20t20 -54v-82 q0 -35 -20 -55.5t-54 -20.5h-107q-73 0 -73 76z" />
<glyph unicode="&#xfd;" horiz-adv-x="1316" d="M166 432v615q0 34 20 53.5t54 19.5h106q34 0 54 -19.5t20 -53.5v-586q0 -97 39 -138.5t112 -41.5q107 0 254 127l58 49v590q0 34 19 53.5t54 19.5h107q34 0 54 -19.5t20 -53.5v-897q0 -268 -156 -401.5t-438 -133.5h-189q-38 0 -60 22t-22 60v51q0 36 22 58t60 22h131 q213 0 305.5 72.5t92.5 257.5v90l-76 -64q-70 -58 -141.5 -89.5t-165.5 -31.5q-159 0 -246.5 89.5t-87.5 279.5zM473 1319q0 15 14 35l119 172q28 39 51.5 56t55.5 17h153q54 0 54 -28q0 -19 -29 -45l-189 -172q-6 -6 -19 -18t-18 -16.5t-15.5 -13t-16.5 -12t-15 -7.5 t-17.5 -5.5t-18.5 -1.5h-54q-24 0 -39.5 10.5t-15.5 28.5z" />
<glyph unicode="&#xfe;" horiz-adv-x="1282" d="M176 -309v1771q0 34 20 54t54 20h104q35 0 55.5 -20t20.5 -54v-528l80 70q75 65 148.5 99t166.5 34q156 0 247 -96t91 -283v-195q0 -168 -82 -298t-215.5 -197.5t-294.5 -67.5h-141v-309q0 -35 -20.5 -55.5t-55.5 -20.5h-104q-34 0 -54 20.5t-20 55.5zM430 213h127 q160 0 255.5 92.5t96.5 257.5v168q0 102 -40 144.5t-115 42.5q-102 0 -260 -138l-64 -55v-512z" />
<glyph unicode="&#xff;" horiz-adv-x="1316" d="M166 432v615q0 34 20 53.5t54 19.5h106q34 0 54 -19.5t20 -53.5v-586q0 -97 39 -138.5t112 -41.5q107 0 254 127l58 49v590q0 34 19 53.5t54 19.5h107q34 0 54 -19.5t20 -53.5v-897q0 -268 -156 -401.5t-438 -133.5h-189q-38 0 -60 22t-22 60v51q0 36 22 58t60 22h131 q213 0 305.5 72.5t92.5 257.5v90l-76 -64q-70 -58 -141.5 -89.5t-165.5 -31.5q-159 0 -246.5 89.5t-87.5 279.5zM266 1317v82q0 34 19.5 54t54.5 20h106q34 0 54 -20t20 -54v-82q0 -35 -20 -55.5t-54 -20.5h-106q-35 0 -54.5 20.5t-19.5 55.5zM797 1317v82q0 35 18.5 54.5 t54.5 19.5h107q34 0 54 -20t20 -54v-82q0 -35 -20 -55.5t-54 -20.5h-107q-73 0 -73 76z" />
<glyph unicode="&#x152;" horiz-adv-x="2052" d="M96 735v72q0 345 169.5 537t490.5 192h1079q34 0 54 -20t20 -54v-73q0 -36 -20 -56t-54 -20h-586v-402h520q35 0 54.5 -20t19.5 -55v-74q0 -35 -19.5 -54.5t-54.5 -19.5h-520v-465h598q35 0 54.5 -19t19.5 -54v-74q0 -35 -19.5 -55.5t-54.5 -20.5h-1081 q-329 0 -499.5 190.5t-170.5 544.5zM367 735q0 -258 95.5 -386t303.5 -128h221v1092h-221q-209 0 -304 -125t-95 -381v-72z" />
<glyph unicode="&#x153;" horiz-adv-x="1959" d="M98 569q0 273 135 420.5t392 147.5q264 0 397 -148q70 72 172.5 110t222.5 38q96 0 173 -18.5t137.5 -58t93 -106.5t32.5 -157q0 -159 -101 -241.5t-277 -82.5h-324v-41q0 -121 75.5 -175t200.5 -54q119 0 275 41q16 4 22 4q23 0 37.5 -18t14.5 -46v-67q0 -66 -74 -88 q-151 -45 -289 -45q-270 0 -403 133q-127 -133 -385 -133q-266 0 -396.5 145t-130.5 440zM352 569q0 -181 62.5 -273.5t210.5 -92.5q143 0 206 87.5t66 260.5v35q-3 170 -65 251t-207 81q-149 0 -211 -85.5t-62 -263.5zM1151 643h285q96 0 137 35.5t41 109.5q0 77 -51 106.5 t-146 29.5q-266 0 -266 -265v-16z" />
<glyph unicode="&#x178;" horiz-adv-x="1320" d="M57 1493q0 20 16.5 31.5t43.5 11.5h135q33 0 54 -18t42 -56l322 -631l329 631q41 74 97 74h116q26 0 42 -10.5t16 -30.5q0 -13 -10 -33l-469 -850v-538q0 -34 -20 -54t-54 -20h-115q-35 0 -54.5 20t-19.5 54v530l-460 858q-11 22 -11 31zM268 1733v82q0 34 19.5 53.5 t54.5 19.5h107q34 0 53.5 -19.5t19.5 -53.5v-82q0 -35 -19.5 -55.5t-53.5 -20.5h-107q-35 0 -54.5 20.5t-19.5 55.5zM799 1733v82q0 73 73 73h107q34 0 54 -19.5t20 -53.5v-82q0 -35 -20 -55.5t-54 -20.5h-107q-73 0 -73 76z" />
<glyph unicode="&#x2c6;" horiz-adv-x="753" d="M0 1313q0 15 23 41l167 190q35 40 58 57t55 17h152q31 0 54.5 -17t57.5 -57l166 -190q21 -24 21 -39q0 -35 -54 -35h-55q-20 0 -41 10.5t-36 23t-44 40.5l-147 141l-148 -141q-32 -30 -44 -41t-33.5 -22t-42.5 -11h-56q-23 0 -38 9t-15 24z" />
<glyph unicode="&#x2dc;" horiz-adv-x="704" d="M0 1368v35q0 32 17 58.5t57 64.5q56 53 127 53q37 0 82 -22.5t79.5 -50t72 -50t61.5 -22.5q71 0 135 71q27 37 49 37q25 0 25 -47v-31q0 -34 -17 -61t-57 -64q-70 -59 -135 -59q-36 0 -80 23t-78.5 50.5t-73 50.5t-63.5 23q-72 0 -127 -69q-30 -35 -49 -35q-25 0 -25 45z " />
<glyph unicode="&#x2000;" horiz-adv-x="1055" />
<glyph unicode="&#x2001;" horiz-adv-x="2111" />
<glyph unicode="&#x2002;" horiz-adv-x="1055" />
<glyph unicode="&#x2003;" horiz-adv-x="2111" />
<glyph unicode="&#x2004;" horiz-adv-x="703" />
<glyph unicode="&#x2005;" horiz-adv-x="527" />
<glyph unicode="&#x2006;" horiz-adv-x="351" />
<glyph unicode="&#x2007;" horiz-adv-x="351" />
<glyph unicode="&#x2008;" horiz-adv-x="263" />
<glyph unicode="&#x2009;" horiz-adv-x="422" />
<glyph unicode="&#x200a;" horiz-adv-x="117" />
<glyph unicode="&#x2010;" horiz-adv-x="831" d="M100 721v63q0 34 19.5 54t54.5 20h483q35 0 54.5 -20t19.5 -54v-63q0 -35 -19.5 -55.5t-54.5 -20.5h-481q-36 0 -56 20t-20 56z" />
<glyph unicode="&#x2011;" horiz-adv-x="831" d="M100 721v63q0 34 19.5 54t54.5 20h483q35 0 54.5 -20t19.5 -54v-63q0 -35 -19.5 -55.5t-54.5 -20.5h-481q-36 0 -56 20t-20 56z" />
<glyph unicode="&#x2012;" horiz-adv-x="831" d="M100 721v63q0 34 19.5 54t54.5 20h483q35 0 54.5 -20t19.5 -54v-63q0 -35 -19.5 -55.5t-54.5 -20.5h-481q-36 0 -56 20t-20 56z" />
<glyph unicode="&#x2013;" horiz-adv-x="1024" d="M63 721v63q0 34 20 54t54 20h750q34 0 54 -20t20 -54v-63q0 -35 -20 -55.5t-54 -20.5h-748q-35 0 -55.5 20.5t-20.5 55.5z" />
<glyph unicode="&#x2014;" horiz-adv-x="2048" d="M63 721v63q0 34 20 54t54 20h1774q34 0 54 -20t20 -54v-63q0 -35 -20 -55.5t-54 -20.5h-1772q-35 0 -55.5 20.5t-20.5 55.5z" />
<glyph unicode="&#x2018;" horiz-adv-x="581" d="M102 1098q0 40 15 63l174 316q32 59 82 59h59q24 0 37.5 -12t13.5 -31q0 -10 -2 -16l-98 -379q-20 -74 -88 -74h-121q-35 0 -53.5 20t-18.5 54z" />
<glyph unicode="&#x2019;" horiz-adv-x="581" d="M96 1067q0 10 2 16l101 379q20 74 88 74h119q36 0 54.5 -19.5t18.5 -54.5q0 -38 -14 -63l-174 -316q-32 -59 -80 -59h-61q-24 0 -39 12t-15 31z" />
<glyph unicode="&#x201a;" horiz-adv-x="610" d="M92 -213q0 10 2 16l101 379q20 74 88 74h118q35 0 53.5 -20t18.5 -54q0 -36 -12 -63l-174 -316q-19 -30 -37.5 -44.5t-44.5 -14.5h-62q-23 0 -37 12t-14 31z" />
<glyph unicode="&#x201c;" horiz-adv-x="1028" d="M102 1098q0 40 15 63l174 316q32 59 82 59h59q24 0 37.5 -12t13.5 -31q0 -10 -2 -16l-98 -379q-20 -74 -88 -74h-121q-35 0 -53.5 20t-18.5 54zM549 1098q0 38 14 63l174 316q32 59 80 59h64q23 0 37 -12t14 -31q0 -10 -2 -16l-101 -379q-20 -74 -88 -74h-118 q-36 0 -55 20t-19 54z" />
<glyph unicode="&#x201d;" horiz-adv-x="1028" d="M96 1067q0 10 2 16l101 379q20 74 88 74h119q36 0 54.5 -19.5t18.5 -54.5q0 -38 -14 -63l-174 -316q-32 -59 -80 -59h-61q-24 0 -39 12t-15 31zM545 1067q0 10 2 16l98 379q20 74 88 74h121q34 0 54 -20t20 -54q0 -38 -17 -63l-174 -316q-29 -59 -80 -59h-61 q-24 0 -37.5 12t-13.5 31z" />
<glyph unicode="&#x201e;" horiz-adv-x="1028" d="M92 -213q0 10 2 16l101 379q20 74 88 74h118q36 0 55 -20t19 -54q0 -38 -14 -63l-174 -316q-32 -59 -80 -59h-64q-23 0 -37 12t-14 31zM541 -213q0 10 2 16l98 379q20 74 88 74h121q34 0 54 -20t20 -54q0 -38 -17 -63l-174 -316q-29 -59 -80 -59h-61q-24 0 -37.5 12 t-13.5 31z" />
<glyph unicode="&#x2022;" horiz-adv-x="1024" d="M129 641q0 93 32.5 167.5t87 120.5t122 70.5t141.5 24.5t142 -24.5t122.5 -70.5t87.5 -120.5t33 -167.5t-33 -168t-87.5 -121.5t-122.5 -71t-142 -24.5t-141.5 24.5t-122 71t-87 121.5t-32.5 168z" />
<glyph unicode="&#x2026;" horiz-adv-x="1783" d="M174 74v108q0 34 19.5 54t54.5 20h114q34 0 54 -20t20 -54v-108q0 -34 -20 -54t-54 -20h-114q-35 0 -54.5 20t-19.5 54zM760 74v108q0 34 19.5 54t54.5 20h112q35 0 55.5 -20t20.5 -54v-108q0 -34 -20.5 -54t-55.5 -20h-112q-35 0 -54.5 20t-19.5 54zM1350 74v108 q0 34 19 54t54 20h113q35 0 55.5 -20t20.5 -54v-108q0 -34 -20.5 -54t-55.5 -20h-113q-35 0 -54 20t-19 54z" />
<glyph unicode="&#x202f;" horiz-adv-x="422" />
<glyph unicode="&#x2039;" horiz-adv-x="688" d="M127 657v64q0 31 17.5 53.5t58.5 54.5l299 246q25 19 41 19q15 0 23.5 -15t8.5 -37v-86q0 -32 -16 -54t-57 -56l-193 -158l193 -156q39 -31 56 -54t17 -56v-86q0 -23 -9.5 -38t-24.5 -15q-13 0 -39 16l-299 248q-40 32 -58 55.5t-18 54.5z" />
<glyph unicode="&#x203a;" horiz-adv-x="688" d="M113 336v86q0 33 17 56t56 54l193 156l-193 158q-41 34 -57 56t-16 54v86q0 22 8.5 37t23.5 15q16 0 41 -19l299 -246q40 -31 57 -54t17 -54v-64q0 -32 -17.5 -55.5t-56.5 -54.5l-299 -248q-26 -16 -39 -16q-15 0 -24.5 15t-9.5 38z" />
<glyph unicode="&#x205f;" horiz-adv-x="527" />
<glyph unicode="&#x20ac;" d="M63 580v47q0 29 17.5 46t46.5 17h113v154h-113q-31 0 -47.5 17t-16.5 46v47q0 29 17.5 46.5t46.5 17.5h113q0 160 81 283.5t210.5 187t281.5 63.5h49q51 0 99 -5.5t96.5 -18.5t78 -39t29.5 -62v-73q0 -29 -13.5 -46.5t-37.5 -17.5q-33 0 -120.5 18.5t-131.5 18.5h-49 q-133 0 -218 -77t-85 -232h475q31 0 48.5 -17.5t17.5 -46.5v-47q0 -30 -17 -46.5t-49 -16.5h-475v-154h475q31 0 48.5 -17t17.5 -46v-47q0 -30 -17 -47t-49 -17h-475v-2q0 -148 87.5 -227.5t215.5 -79.5h66q53 0 136.5 22.5t102.5 22.5q47 0 47 -62v-73q0 -44 -43 -75 t-106 -44.5t-137 -13.5h-66q-91 0 -174 19.5t-156 61.5t-127 103t-85 150.5t-31 197.5h-113q-30 0 -47 17t-17 47z" />
<glyph unicode="&#x2122;" horiz-adv-x="1644" d="M55 1444v39q0 53 56 53h469q26 0 40.5 -14t14.5 -39v-39q0 -53 -55 -53h-146v-623q0 -53 -53 -53h-72q-53 0 -53 53v623h-145q-56 0 -56 53zM737 768v715q0 53 56 53h67q35 0 58 -37l206 -311l195 311q19 37 57 37h68q53 0 53 -53v-715q0 -53 -53 -53h-70q-53 0 -53 53 v432l-154 -231q-18 -25 -39 -25h-24q-10 0 -21 8t-16 17l-152 215v-416q0 -53 -53 -53h-69q-56 0 -56 53z" />
<glyph unicode="&#xe000;" horiz-adv-x="1116" d="M0 0v1116h1116v-1116h-1116z" />
</font>
</defs>
</svg>
